<svg width="20" height="20" viewBox="0 0 20 20" fill="none" xmlns="http://www.w3.org/2000/svg">
<path d="M15.8333 8.33333H4.16667C3.24619 8.33333 2.5 9.07952 2.5 10V16.6667C2.5 17.5871 3.24619 18.3333 4.16667 18.3333H15.8333C16.7538 18.3333 17.5 17.5871 17.5 16.6667V10C17.5 9.07952 16.7538 8.33333 15.8333 8.33333Z" stroke="#828282" stroke-width="2" stroke-linecap="round" stroke-linejoin="round"/>
<path d="M5 5C5 4.33696 5.26339 3.70107 5.73223 3.23223C6.20107 2.76339 6.83696 2.5 7.5 2.5H12.5C13.163 2.5 13.7989 2.76339 14.2678 3.23223C14.7366 3.70107 15 4.33696 15 5V8.33333H5V5Z" stroke="#828282" stroke-width="2" stroke-linecap="round" stroke-linejoin="round"/>
</svg>
