<svg width="18" height="18" viewBox="0 0 18 18" fill="none" xmlns="http://www.w3.org/2000/svg">
<path d="M2.25 3L3.97725 13.557C4.06672 14.104 4.30597 14.6155 4.66845 15.0347C5.03092 15.454 5.50246 15.7647 6.03075 15.9323L6.27675 16.0103C8.04868 16.5728 9.95132 16.5728 11.7232 16.0103L11.9692 15.9323C12.4974 15.7647 12.9689 15.4542 13.3314 15.035C13.6938 14.6159 13.9331 14.1046 14.0228 13.5577L15.75 3" stroke="#606060" stroke-width="2" stroke-linecap="round" stroke-linejoin="round"/>
<path d="M9 4.5C12.7279 4.5 15.75 3.82843 15.75 3C15.75 2.17157 12.7279 1.5 9 1.5C5.27208 1.5 2.25 2.17157 2.25 3C2.25 3.82843 5.27208 4.5 9 4.5Z" stroke="#606060" stroke-width="2" stroke-linecap="round" stroke-linejoin="round"/>
</svg>
