<svg width="24" height="24" viewBox="0 0 24 24" fill="none" xmlns="http://www.w3.org/2000/svg">
<path d="M12.2655 11C15.1109 11 17.4176 8.98528 17.4176 6.5C17.4176 4.01472 15.1109 2 12.2655 2C9.42016 2 7.11353 4.01472 7.11353 6.5C7.11353 8.98528 9.42016 11 12.2655 11Z" stroke="#828282" stroke-width="2"/>
<path d="M17.4176 12.8H17.7803C18.5337 12.8002 19.261 13.0406 19.8256 13.4762C20.3903 13.9117 20.7534 14.5123 20.8468 15.1652L21.2497 17.9768C21.286 18.2301 21.2601 18.4872 21.1739 18.7311C21.0876 18.975 20.943 19.2001 20.7496 19.3914C20.5562 19.5828 20.3183 19.736 20.0519 19.8409C19.7855 19.9458 19.4966 20.0001 19.2044 20H5.32688C5.03464 20.0001 4.74573 19.9458 4.47932 19.8409C4.21291 19.736 3.9751 19.5828 3.78166 19.3914C3.58823 19.2001 3.4436 18.975 3.35737 18.7311C3.27114 18.4872 3.24529 18.2301 3.28153 17.9768L3.68339 15.1652C3.77684 14.512 4.14029 13.9111 4.70538 13.4756C5.27047 13.04 5.99827 12.7998 6.75193 12.8H7.1136" stroke="#828282" stroke-width="2" stroke-linecap="round" stroke-linejoin="round"/>
</svg>
