<svg width="16" height="18" viewBox="0 0 16 18" fill="none" xmlns="http://www.w3.org/2000/svg">
<path d="M13.4138 8.2215C13.713 8.6865 13.713 9.31425 13.4138 9.7785C12.4717 11.2403 10.2113 14.25 7.57236 14.25C4.93337 14.25 2.67301 11.2403 1.73087 9.7785C1.58535 9.55585 1.50635 9.28194 1.50635 9C1.50635 8.71806 1.58535 8.44415 1.73087 8.2215C2.67301 6.75975 4.93337 3.75 7.57236 3.75C10.2113 3.75 12.4717 6.75975 13.4138 8.2215V8.2215Z" stroke="#0085FF" stroke-opacity="0.6" stroke-width="2" stroke-linecap="round" stroke-linejoin="round"/>
<path d="M7.5723 11.25C8.61783 11.25 9.46541 10.2426 9.46541 9C9.46541 7.75736 8.61783 6.75 7.5723 6.75C6.52677 6.75 5.6792 7.75736 5.6792 9C5.6792 10.2426 6.52677 11.25 7.5723 11.25Z" stroke="#0085FF" stroke-opacity="0.6" stroke-width="2" stroke-linecap="round" stroke-linejoin="round"/>
</svg>
