<svg width="15" height="15" viewBox="0 0 15 15" fill="none" xmlns="http://www.w3.org/2000/svg">
<path d="M7.5 13.75L9.0625 12.5M7.5 13.75V8.125V13.75ZM7.5 13.75L5.9375 12.5L7.5 13.75Z" stroke="white" stroke-linecap="round" stroke-linejoin="round"/>
<path d="M3.14626 5.69824C2.55514 5.84699 2.03868 6.20647 1.69391 6.70914C1.34915 7.21182 1.19981 7.82309 1.27395 8.42811C1.34809 9.03313 1.64061 9.59025 2.09655 9.99481C2.55249 10.3994 3.14046 10.6235 3.75001 10.6251H4.37501" stroke="white" stroke-linecap="round" stroke-linejoin="round"/>
<path d="M9.89367 4.46132C9.68005 3.61543 9.15278 2.88241 8.41875 2.41085C7.68471 1.9393 6.79884 1.7645 5.9407 1.92188C5.08257 2.07927 4.31638 2.55706 3.79746 3.2584C3.27853 3.95975 3.0457 4.83217 3.14617 5.69882C3.14617 5.69882 3.24179 6.25007 3.43742 6.56257" stroke="white" stroke-linecap="round" stroke-linejoin="round"/>
<path d="M10.625 10.625C11.0663 10.6247 11.5025 10.5309 11.9049 10.3499C12.3073 10.1689 12.6669 9.90467 12.9598 9.57467C13.2528 9.24467 13.4725 8.85638 13.6046 8.43533C13.7367 8.01428 13.7781 7.57004 13.7261 7.13184C13.6741 6.69364 13.5299 6.27142 13.303 5.89296C13.0761 5.51451 12.7716 5.1884 12.4095 4.93612C12.0475 4.68383 11.6361 4.51107 11.2025 4.42922C10.7689 4.34738 10.3228 4.35829 9.89375 4.46125L9.0625 4.6875" stroke="white" stroke-linecap="round" stroke-linejoin="round"/>
</svg>
