<svg width="55" height="55" viewBox="0 0 55 55" fill="none" xmlns="http://www.w3.org/2000/svg">
<path d="M27.8382 24.6534C27.7981 24.6021 27.7467 24.5605 27.6881 24.532C27.6294 24.5034 27.5651 24.4886 27.4999 24.4886C27.4347 24.4886 27.3703 24.5034 27.3117 24.532C27.253 24.5605 27.2017 24.6021 27.1615 24.6534L21.1458 32.2643C21.0963 32.3276 21.0655 32.4036 21.057 32.4836C21.0486 32.5636 21.0629 32.6443 21.0982 32.7166C21.1335 32.7889 21.1884 32.8498 21.2567 32.8923C21.3249 32.9348 21.4038 32.9573 21.4842 32.9571H25.4535V45.9766C25.4535 46.213 25.6468 46.4063 25.8832 46.4063H29.1058C29.3422 46.4063 29.5355 46.213 29.5355 45.9766V32.9625H33.5155C33.8754 32.9625 34.0741 32.5489 33.8539 32.2696L27.8382 24.6534Z" fill="white"/>
<path d="M43.5811 19.6958C41.1211 13.2075 34.853 8.59375 27.5107 8.59375C20.1685 8.59375 13.9004 13.2021 11.4404 19.6904C6.8374 20.8989 3.4375 25.0937 3.4375 30.0781C3.4375 36.0132 8.24463 40.8203 14.1743 40.8203H16.3281C16.5645 40.8203 16.7578 40.627 16.7578 40.3906V37.168C16.7578 36.9316 16.5645 36.7383 16.3281 36.7383H14.1743C12.3643 36.7383 10.6616 36.0186 9.39404 34.7134C8.13184 33.4136 7.46045 31.6626 7.51953 29.8472C7.56787 28.4292 8.05127 27.0972 8.92676 25.9746C9.82373 24.8306 11.0806 23.998 12.4771 23.6274L14.5127 23.0957L15.2593 21.1299C15.7212 19.9053 16.3657 18.7612 17.1768 17.7246C17.9774 16.6972 18.9259 15.794 19.9912 15.0444C22.1987 13.4922 24.7983 12.6704 27.5107 12.6704C30.2231 12.6704 32.8228 13.4922 35.0303 15.0444C36.0991 15.7964 37.0444 16.6987 37.8447 17.7246C38.6558 18.7612 39.3003 19.9106 39.7622 21.1299L40.5034 23.0903L42.5337 23.6274C45.4448 24.4116 47.4805 27.0596 47.4805 30.0781C47.4805 31.856 46.7876 33.5317 45.5308 34.7886C44.9144 35.4085 44.1812 35.9001 43.3735 36.2348C42.5659 36.5694 41.6999 36.7406 40.8257 36.7383H38.6719C38.4355 36.7383 38.2422 36.9316 38.2422 37.168V40.3906C38.2422 40.627 38.4355 40.8203 38.6719 40.8203H40.8257C46.7554 40.8203 51.5625 36.0132 51.5625 30.0781C51.5625 25.0991 48.1733 20.9097 43.5811 19.6958Z" fill="white"/>
</svg>
