<svg width="14" height="14" viewBox="0 0 14 14" fill="none" xmlns="http://www.w3.org/2000/svg">
<path d="M12.4154 4.82759L8.94409 4.3231L7.39233 1.1772C7.34995 1.09107 7.28022 1.02134 7.19409 0.97896C6.97807 0.87232 6.71557 0.961187 6.60756 1.1772L5.05581 4.3231L1.58452 4.82759C1.48882 4.84126 1.40132 4.88638 1.33432 4.95474C1.25333 5.03798 1.20871 5.14998 1.21024 5.26611C1.21178 5.38224 1.25936 5.49301 1.34253 5.57408L3.85405 8.02271L3.26069 11.4803C3.24678 11.5608 3.25568 11.6435 3.28638 11.7191C3.31709 11.7947 3.36837 11.8603 3.43442 11.9082C3.50046 11.9562 3.57863 11.9847 3.66005 11.9905C3.74147 11.9963 3.82288 11.9792 3.89507 11.9411L6.99995 10.3086L10.1048 11.9411C10.1896 11.9862 10.288 12.0012 10.3824 11.9848C10.6203 11.9438 10.7802 11.7182 10.7392 11.4803L10.1458 8.02271L12.6574 5.57408C12.7257 5.50709 12.7708 5.41958 12.7845 5.32388C12.8214 5.08462 12.6546 4.86314 12.4154 4.82759V4.82759Z" fill="black"/>
</svg>
