<svg width="16" height="16" viewBox="0 0 16 16" fill="none" xmlns="http://www.w3.org/2000/svg">
<path d="M13.4688 7.27031H12.2032C12.1313 7.27031 12.0626 7.30156 12.0141 7.35625L8.59383 11.2984V2.5C8.59383 2.43125 8.53758 2.375 8.46883 2.375H7.53133C7.46258 2.375 7.40633 2.43125 7.40633 2.5V11.2984L3.98602 7.35625C3.93914 7.30156 3.87039 7.27031 3.79695 7.27031H2.53133C2.42508 7.27031 2.36727 7.39688 2.43758 7.47656L7.62352 13.4531C7.6704 13.5072 7.72835 13.5506 7.79345 13.5803C7.85856 13.61 7.92929 13.6254 8.00086 13.6254C8.07243 13.6254 8.14316 13.61 8.20827 13.5803C8.27337 13.5506 8.33133 13.5072 8.37821 13.4531L13.5626 7.47656C13.6329 7.39531 13.5751 7.27031 13.4688 7.27031Z" fill="black"/>
</svg>
