<svg width="55" height="55" viewBox="0 0 55 55" fill="none" xmlns="http://www.w3.org/2000/svg">
<path fill-rule="evenodd" clip-rule="evenodd" d="M35.592 21.1268C35.752 21.2865 35.879 21.4762 35.9657 21.685C36.0523 21.8938 36.0969 22.1176 36.0969 22.3437C36.0969 22.5698 36.0523 22.7936 35.9657 23.0024C35.879 23.2113 35.752 23.4009 35.592 23.5606L25.2795 33.8731C25.1198 34.0331 24.9301 34.1601 24.7213 34.2468C24.5125 34.3334 24.2887 34.378 24.0626 34.378C23.8365 34.378 23.6127 34.3334 23.4039 34.2468C23.195 34.1601 23.0054 34.0331 22.8457 33.8731L17.6895 28.7168C17.5297 28.557 17.4029 28.3673 17.3164 28.1585C17.2299 27.9497 17.1854 27.726 17.1854 27.5C17.1854 27.274 17.2299 27.0502 17.3164 26.8414C17.4029 26.6326 17.5297 26.4429 17.6895 26.2831C17.8493 26.1233 18.039 25.9965 18.2478 25.91C18.4566 25.8235 18.6804 25.779 18.9063 25.779C19.1323 25.779 19.3561 25.8235 19.5649 25.91C19.7737 25.9965 19.9634 26.1233 20.1232 26.2831L24.0626 30.2259L33.1582 21.1268C33.3179 20.9668 33.5075 20.8398 33.7164 20.7531C33.9252 20.6665 34.149 20.6219 34.3751 20.6219C34.6012 20.6219 34.825 20.6665 35.0338 20.7531C35.2426 20.8398 35.4323 20.9668 35.592 21.1268Z" fill="white"/>
<path d="M15.1456 11.4881C18.5813 8.52546 22.9633 6.88923 27.5 6.875C36.7469 6.875 44.4228 13.75 45.2581 22.6153C50.7306 23.3888 55 27.9709 55 33.5947C55 39.7684 49.8506 44.6875 43.6116 44.6875H12.9972C5.87125 44.6875 0 39.0706 0 32.0306C0 25.9703 4.35187 20.9516 10.1131 19.6797C10.6047 16.7131 12.5125 13.7569 15.1456 11.4881ZM17.3903 14.0903C14.7881 16.335 13.4269 19.0403 13.4269 21.1578V22.6978L11.8972 22.8663C7.095 23.3922 3.4375 27.335 3.4375 32.0306C3.4375 37.0734 7.66562 41.25 12.9972 41.25H43.6116C48.0563 41.25 51.5625 37.7712 51.5625 33.5947C51.5625 29.4147 48.0563 25.9359 43.6116 25.9359H41.8928V24.2172C41.8963 16.5859 35.5025 10.3125 27.5 10.3125C23.7871 10.3273 20.2016 11.6684 17.3903 14.0937V14.0903Z" fill="white"/>
</svg>
