<svg width="16" height="16" viewBox="0 0 16 16" fill="none" xmlns="http://www.w3.org/2000/svg">
<path fill-rule="evenodd" clip-rule="evenodd" d="M10.3539 6.14604C10.4005 6.19248 10.4374 6.24766 10.4626 6.30841C10.4878 6.36915 10.5008 6.43427 10.5008 6.50004C10.5008 6.56581 10.4878 6.63093 10.4626 6.69167C10.4374 6.75242 10.4005 6.80759 10.3539 6.85404L7.3539 9.85404C7.30745 9.9006 7.25228 9.93754 7.19153 9.96275C7.13079 9.98796 7.06567 10.0009 6.9999 10.0009C6.93413 10.0009 6.86901 9.98796 6.80827 9.96275C6.74752 9.93754 6.69234 9.9006 6.6459 9.85404L5.1459 8.35404C5.09941 8.30755 5.06254 8.25236 5.03738 8.19162C5.01222 8.13088 4.99927 8.06578 4.99927 8.00004C4.99927 7.9343 5.01222 7.86919 5.03738 7.80846C5.06254 7.74772 5.09941 7.69253 5.1459 7.64604C5.19239 7.59955 5.24758 7.56267 5.30832 7.53752C5.36906 7.51236 5.43416 7.49941 5.4999 7.49941C5.56564 7.49941 5.63074 7.51236 5.69148 7.53752C5.75222 7.56267 5.80741 7.59955 5.8539 7.64604L6.9999 8.79304L9.6459 6.14604C9.69234 6.09948 9.74752 6.06253 9.80827 6.03733C9.86901 6.01212 9.93413 5.99915 9.9999 5.99915C10.0657 5.99915 10.1308 6.01212 10.1915 6.03733C10.2523 6.06253 10.3075 6.09948 10.3539 6.14604V6.14604Z" fill="black"/>
<path d="M4.406 3.342C5.40548 2.48014 6.68024 2.00414 8 2C10.69 2 12.923 4 13.166 6.579C14.758 6.804 16 8.137 16 9.773C16 11.569 14.502 13 12.687 13H3.781C1.708 13 0 11.366 0 9.318C0 7.555 1.266 6.095 2.942 5.725C3.085 4.862 3.64 4.002 4.406 3.342V3.342ZM5.059 4.099C4.302 4.752 3.906 5.539 3.906 6.155V6.603L3.461 6.652C2.064 6.805 1 7.952 1 9.318C1 10.785 2.23 12 3.781 12H12.687C13.98 12 15 10.988 15 9.773C15 8.557 13.98 7.545 12.687 7.545H12.187V7.045C12.188 4.825 10.328 3 8 3C6.91988 3.00431 5.87684 3.39443 5.059 4.1V4.099Z" fill="black"/>
</svg>
