<svg width="18" height="18" viewBox="0 0 18 18" fill="none" xmlns="http://www.w3.org/2000/svg">
<g clip-path="url(#clip0)">
<path d="M18.0225 9.37687C18.0225 9.37687 14.6433 2.8125 9.01125 2.8125C3.37922 2.8125 0 9.37687 0 9.37687C0 9.37687 3.37922 15.9412 9.01125 15.9412C14.6433 15.9412 18.0225 9.37687 18.0225 9.37687ZM1.32127 9.37687C1.86591 8.49978 2.49233 7.68289 3.19111 6.93851C4.64079 5.40006 6.62327 4.00602 9.01125 4.00602C11.3992 4.00602 13.3806 5.40006 14.8325 6.93851C15.5313 7.68289 16.1577 8.49978 16.7024 9.37687C16.637 9.48071 16.5649 9.59529 16.4827 9.72061C16.1054 10.2935 15.5478 11.0574 14.8325 11.8152C13.3806 13.3537 11.3981 14.7477 9.01125 14.7477C6.62327 14.7477 4.64192 13.3537 3.18998 11.8152C2.49121 11.0709 1.86479 10.254 1.32015 9.37687H1.32127Z" fill="#828282"/>
<path d="M9.01127 6.39306C8.26442 6.39306 7.54815 6.70743 7.02005 7.267C6.49194 7.82657 6.19525 8.58551 6.19525 9.37687C6.19525 10.1682 6.49194 10.9272 7.02005 11.4867C7.54815 12.0463 8.26442 12.3607 9.01127 12.3607C9.75812 12.3607 10.4744 12.0463 11.0025 11.4867C11.5306 10.9272 11.8273 10.1682 11.8273 9.37687C11.8273 8.58551 11.5306 7.82657 11.0025 7.267C10.4744 6.70743 9.75812 6.39306 9.01127 6.39306ZM5.06885 9.37687C5.06885 8.26897 5.48421 7.20645 6.22356 6.42305C6.9629 5.63965 7.96567 5.19954 9.01127 5.19954C10.0569 5.19954 11.0596 5.63965 11.799 6.42305C12.5383 7.20645 12.9537 8.26897 12.9537 9.37687C12.9537 10.4848 12.5383 11.5473 11.799 12.3307C11.0596 13.1141 10.0569 13.5542 9.01127 13.5542C7.96567 13.5542 6.9629 13.1141 6.22356 12.3307C5.48421 11.5473 5.06885 10.4848 5.06885 9.37687Z" fill="#828282"/>
</g>
<defs>
<clipPath id="clip0">
<rect width="18" height="18" fill="white"/>
</clipPath>
</defs>
</svg>
