<svg width="14" height="14" viewBox="0 0 14 14" fill="none" xmlns="http://www.w3.org/2000/svg">
<path d="M1.75 0.875C1.51794 0.875 1.29538 0.967187 1.13128 1.13128C0.967187 1.29538 0.875 1.51794 0.875 1.75V12.25C0.875 12.4821 0.967187 12.7046 1.13128 12.8687C1.29538 13.0328 1.51794 13.125 1.75 13.125H12.25C12.4821 13.125 12.7046 13.0328 12.8687 12.8687C13.0328 12.7046 13.125 12.4821 13.125 12.25V1.75C13.125 1.51794 13.0328 1.29538 12.8687 1.13128C12.7046 0.967187 12.4821 0.875 12.25 0.875H8.3125C8.08044 0.875 7.85788 0.967187 7.69378 1.13128C7.52969 1.29538 7.4375 1.51794 7.4375 1.75V8.13138L9.75275 5.81525C9.8349 5.7331 9.94632 5.68695 10.0625 5.68695C10.1787 5.68695 10.2901 5.7331 10.3723 5.81525C10.4544 5.8974 10.5006 6.00882 10.5006 6.125C10.5006 6.24118 10.4544 6.3526 10.3723 6.43475L7.30975 9.49725C7.26911 9.53799 7.22083 9.57032 7.16768 9.59237C7.11453 9.61443 7.05755 9.62578 7 9.62578C6.94245 9.62578 6.88547 9.61443 6.83232 9.59237C6.77917 9.57032 6.73089 9.53799 6.69025 9.49725L3.62775 6.43475C3.58707 6.39407 3.55481 6.34578 3.53279 6.29264C3.51078 6.23949 3.49945 6.18253 3.49945 6.125C3.49945 6.06747 3.51078 6.01051 3.53279 5.95736C3.55481 5.90422 3.58707 5.85593 3.62775 5.81525C3.66843 5.77457 3.71672 5.74231 3.76986 5.72029C3.82301 5.69828 3.87997 5.68695 3.9375 5.68695C3.99503 5.68695 4.05199 5.69828 4.10514 5.72029C4.15828 5.74231 4.20657 5.77457 4.24725 5.81525L6.5625 8.13138V1.75C6.5625 1.28587 6.74687 0.840752 7.07506 0.512563C7.40325 0.184375 7.84837 0 8.3125 0L12.25 0C12.7141 0 13.1592 0.184375 13.4874 0.512563C13.8156 0.840752 14 1.28587 14 1.75V12.25C14 12.7141 13.8156 13.1592 13.4874 13.4874C13.1592 13.8156 12.7141 14 12.25 14H1.75C1.28587 14 0.840752 13.8156 0.512563 13.4874C0.184375 13.1592 0 12.7141 0 12.25V1.75C0 1.28587 0.184375 0.840752 0.512563 0.512563C0.840752 0.184375 1.28587 0 1.75 0L3.9375 0C4.05353 0 4.16481 0.0460936 4.24686 0.128141C4.32891 0.210188 4.375 0.321468 4.375 0.4375C4.375 0.553532 4.32891 0.664812 4.24686 0.746859C4.16481 0.828906 4.05353 0.875 3.9375 0.875H1.75Z" fill="white"/>
</svg>
