<svg width="14" height="14" viewBox="0 0 14 14" fill="none" xmlns="http://www.w3.org/2000/svg">
<path d="M2.93135 12.1188C2.91136 12.2043 2.911 12.2933 2.9303 12.379C2.94959 12.4647 2.98804 12.545 3.04275 12.6137C3.09747 12.6825 3.16704 12.7379 3.24624 12.776C3.32545 12.814 3.41223 12.8336 3.5001 12.8333C3.61532 12.8334 3.72798 12.7993 3.82385 12.7353L7.0001 10.6178L10.1763 12.7353C10.2757 12.8013 10.3929 12.8353 10.5121 12.8327C10.6314 12.83 10.747 12.791 10.8433 12.7207C10.9397 12.6505 11.0122 12.5524 11.0512 12.4396C11.0902 12.3269 11.0937 12.205 11.0613 12.0902L9.99435 8.35684L12.6403 5.97568C12.7251 5.89937 12.7856 5.79989 12.8144 5.68956C12.8432 5.57922 12.8391 5.46286 12.8025 5.35486C12.7658 5.24686 12.6984 5.15196 12.6084 5.08191C12.5184 5.01185 12.4099 4.9697 12.2962 4.96067L8.9706 4.69584L7.53151 1.51026C7.48568 1.40766 7.41114 1.32051 7.31687 1.25934C7.22261 1.19817 7.11266 1.16559 7.00029 1.16553C6.88791 1.16547 6.77793 1.19793 6.6836 1.25899C6.58926 1.32006 6.51462 1.40712 6.46868 1.50968L5.0296 4.69584L1.70401 4.96009C1.59228 4.96894 1.48546 5.0098 1.39634 5.07777C1.30721 5.14574 1.23956 5.23795 1.20147 5.34336C1.16338 5.44877 1.15646 5.56293 1.18155 5.67217C1.20664 5.78141 1.26266 5.88111 1.34293 5.95934L3.8011 8.35509L2.93135 12.1188ZM7.0001 3.16693L8.19126 5.80417L8.53426 5.83159H8.53485L10.8518 6.01534L8.94376 7.73267L8.94318 7.73384L8.6731 7.97651L8.77285 8.32476V8.32651L9.50376 10.8844L7.0001 9.21551V3.16693Z" fill="black"/>
</svg>
