<svg width="30" height="30" viewBox="0 0 30 30" fill="none" xmlns="http://www.w3.org/2000/svg">
<path d="M4.24973 15.7503H5.49973V24.5003C5.49973 25.879 6.62098 27.0003 7.99973 27.0003H22.9997C24.3785 27.0003 25.4997 25.879 25.4997 24.5003V15.7503H26.7497C26.9969 15.7502 27.2385 15.6769 27.4441 15.5395C27.6496 15.4021 27.8097 15.2069 27.9043 14.9786C27.9989 14.7502 28.0237 14.4989 27.9755 14.2565C27.9273 14.014 27.8082 13.7913 27.6335 13.6165L16.3835 2.3665C16.2675 2.25032 16.1297 2.15815 15.9781 2.09526C15.8265 2.03237 15.6639 2 15.4997 2C15.3356 2 15.173 2.03237 15.0214 2.09526C14.8697 2.15815 14.732 2.25032 14.616 2.3665L3.36598 13.6165C3.19122 13.7913 3.07221 14.014 3.024 14.2565C2.97579 14.4989 3.00055 14.7502 3.09514 14.9786C3.18972 15.2069 3.3499 15.4021 3.55541 15.5395C3.76092 15.6769 4.00255 15.7502 4.24973 15.7503ZM12.9997 24.5003V18.2503H17.9997V24.5003H12.9997ZM15.4997 5.01775L22.9997 12.5178V18.2503L23.001 24.5003H20.4997V18.2503C20.4997 16.8715 19.3785 15.7503 17.9997 15.7503H12.9997C11.621 15.7503 10.4997 16.8715 10.4997 18.2503V24.5003H7.99973V12.5178L15.4997 5.01775Z" fill="black"/>
</svg>
