<svg width="17" height="17" viewBox="0 0 17 17" fill="none" xmlns="http://www.w3.org/2000/svg">
<path d="M14.3438 13.5926L13.2812 12.5301V11.1562H12.2188V12.9699L13.5926 14.3438L14.3438 13.5926Z" fill="white"/>
<path d="M12.75 16.4688C12.0145 16.4688 11.2955 16.2507 10.684 15.842C10.0724 15.4334 9.59579 14.8526 9.31432 14.1731C9.03286 13.4936 8.95922 12.7459 9.10271 12.0245C9.2462 11.3031 9.60037 10.6405 10.1204 10.1204C10.6405 9.60037 11.3031 9.2462 12.0245 9.10271C12.7459 8.95922 13.4936 9.03286 14.1731 9.31432C14.8526 9.59579 15.4334 10.0724 15.842 10.684C16.2507 11.2955 16.4688 12.0145 16.4688 12.75C16.4676 13.7359 16.0755 14.6812 15.3783 15.3783C14.6812 16.0755 13.7359 16.4676 12.75 16.4688V16.4688ZM12.75 10.0938C12.2246 10.0938 11.7111 10.2495 11.2743 10.5414C10.8375 10.8333 10.497 11.2481 10.2959 11.7335C10.0949 12.2189 10.0423 12.7529 10.1448 13.2682C10.2473 13.7835 10.5003 14.2568 10.8717 14.6283C11.2432 14.9997 11.7165 15.2527 12.2318 15.3552C12.7471 15.4577 13.2811 15.4051 13.7665 15.2041C14.2519 15.003 14.6667 14.6626 14.9586 14.2257C15.2505 13.7889 15.4063 13.2754 15.4063 12.75C15.4055 12.0457 15.1255 11.3705 14.6275 10.8725C14.1295 10.3745 13.4543 10.0945 12.75 10.0938V10.0938Z" fill="white"/>
<path d="M8.5 14.875C6.80981 14.8732 5.18936 14.2009 3.99421 13.0058C2.79907 11.8106 2.12683 10.1902 2.125 8.5H1.0625C1.06475 10.4719 1.84906 12.3623 3.24338 13.7566C4.63769 15.1509 6.52814 15.9353 8.5 15.9375V14.875Z" fill="white"/>
<path d="M6.375 4.25005H3.76019C4.61986 3.28754 5.75174 2.60901 7.00581 2.3044C8.25988 1.9998 9.57691 2.0835 10.7823 2.54442C11.9877 3.00534 13.0246 3.8217 13.7555 4.88531C14.4864 5.94891 14.8768 7.20952 14.875 8.50006H15.9375C15.9398 7.02147 15.5007 5.57585 14.6764 4.34837C13.8521 3.12089 12.6801 2.16744 11.3105 1.61015C9.941 1.05286 8.43627 0.917106 6.98909 1.22028C5.54192 1.52345 4.21821 2.25174 3.1875 3.31187V1.06255H2.125V5.31255H6.375V4.25005Z" fill="white"/>
</svg>
