<svg width="28" height="28" viewBox="0 0 28 28" fill="none" xmlns="http://www.w3.org/2000/svg">
<path d="M8.01115 14.6763L13.4556 20.0352C13.601 20.1777 13.7965 20.2576 14 20.2576C14.2036 20.2576 14.3991 20.1777 14.5445 20.0352L19.9889 14.6763C20.1364 14.5319 20.2205 14.3349 20.2227 14.1285C20.2249 13.9221 20.145 13.7233 20.0006 13.5758C19.8562 13.4283 19.6591 13.3442 19.4527 13.342C19.2463 13.3398 19.0475 13.4197 18.9 13.5641L14.7778 17.6163V3.11079C14.7778 2.90451 14.6959 2.70668 14.55 2.56081C14.4042 2.41495 14.2063 2.33301 14 2.33301C13.7938 2.33301 13.5959 2.41495 13.4501 2.56081C13.3042 2.70668 13.2223 2.90451 13.2223 3.11079V17.6163L9.10004 13.5641C8.95255 13.4197 8.75374 13.3398 8.54735 13.342C8.34095 13.3442 8.14388 13.4283 7.99949 13.5758C7.85509 13.7233 7.7752 13.9221 7.77739 14.1285C7.77958 14.3349 7.86366 14.5319 8.01115 14.6763V14.6763Z" fill="black"/>
<path d="M24.1113 11.9775V23.3331H3.88905V7.7775H7.29572C7.502 7.7775 7.69983 7.69556 7.84569 7.5497C7.99155 7.40384 8.0735 7.20601 8.0735 6.99973C8.0735 6.79345 7.99155 6.59562 7.84569 6.44975C7.69983 6.30389 7.502 6.22195 7.29572 6.22195H3.95127C3.74182 6.21356 3.53283 6.2476 3.33686 6.32201C3.14089 6.39642 2.96198 6.50967 2.81088 6.65496C2.65978 6.80025 2.5396 6.97459 2.45757 7.16749C2.37553 7.36039 2.33333 7.56788 2.3335 7.7775V23.3331C2.33333 23.5427 2.37553 23.7502 2.45757 23.9431C2.5396 24.136 2.65978 24.3103 2.81088 24.4556C2.96198 24.6009 3.14089 24.7141 3.33686 24.7886C3.53283 24.863 3.74182 24.897 3.95127 24.8886H24.0491C24.2585 24.897 24.4675 24.863 24.6635 24.7886C24.8594 24.7141 25.0383 24.6009 25.1894 24.4556C25.3405 24.3103 25.4607 24.136 25.5428 23.9431C25.6248 23.7502 25.667 23.5427 25.6668 23.3331V11.9775H24.1113Z" fill="black"/>
<path d="M20.8834 0.88663L16.4345 8.55552C16.331 8.70744 16.2716 8.88506 16.2628 9.06868C16.2541 9.2523 16.2964 9.43476 16.385 9.59584C16.4735 9.75691 16.605 9.89031 16.7648 9.98126C16.9245 10.0722 17.1063 10.1171 17.2901 10.1111H26.1956C26.3794 10.1171 26.5612 10.0722 26.7209 9.98126C26.8807 9.89031 27.0122 9.75691 27.1008 9.59584C27.1893 9.43476 27.2316 9.2523 27.2229 9.06868C27.2141 8.88506 27.1547 8.70744 27.0512 8.55552L22.6023 0.88663C22.5146 0.736562 22.3891 0.612083 22.2383 0.525578C22.0875 0.439072 21.9167 0.393555 21.7429 0.393555C21.569 0.393555 21.3982 0.439072 21.2474 0.525578C21.0967 0.612083 20.9711 0.736562 20.8834 0.88663V0.88663Z" fill="black"/>
</svg>
