<svg width="30" height="30" viewBox="0 0 30 30" fill="none" xmlns="http://www.w3.org/2000/svg">
<path d="M27.0915 23.1915C26.2879 22.4751 25.5844 21.6539 24.9998 20.7498C24.3617 19.502 23.9792 18.1392 23.8748 16.7415V12.6248C23.8804 10.4295 23.084 8.30773 21.6355 6.65815C20.1869 5.00856 18.1858 3.94472 16.0082 3.6665V2.5915C16.0082 2.29645 15.891 2.01348 15.6823 1.80485C15.4737 1.59621 15.1907 1.479 14.8957 1.479C14.6006 1.479 14.3176 1.59621 14.109 1.80485C13.9004 2.01348 13.7832 2.29645 13.7832 2.5915V3.68317C11.6251 3.98144 9.64815 5.05172 8.21861 6.69576C6.78908 8.3398 6.00378 10.4462 6.00817 12.6248V16.7415C5.9038 18.1392 5.52132 19.502 4.88317 20.7498C4.30891 21.6518 3.61667 22.473 2.82484 23.1915C2.73595 23.2696 2.66471 23.3657 2.61585 23.4735C2.567 23.5813 2.54165 23.6982 2.5415 23.8165V24.9498C2.5415 25.1709 2.6293 25.3828 2.78558 25.5391C2.94186 25.6954 3.15382 25.7832 3.37484 25.7832H26.5415C26.7625 25.7832 26.9745 25.6954 27.1308 25.5391C27.287 25.3828 27.3748 25.1709 27.3748 24.9498V23.8165C27.3747 23.6982 27.3493 23.5813 27.3005 23.4735C27.2516 23.3657 27.1804 23.2696 27.0915 23.1915ZM4.27484 24.1165C5.05018 23.3675 5.73284 22.5282 6.30817 21.6165C7.11201 20.1094 7.58103 18.4465 7.68317 16.7415V12.6248C7.65012 11.6482 7.81394 10.6749 8.16487 9.76289C8.51581 8.85089 9.04668 8.01882 9.72588 7.31625C10.4051 6.61369 11.2187 6.05498 12.1183 5.6734C13.0179 5.29182 13.9851 5.09518 14.9623 5.09518C15.9395 5.09518 16.9067 5.29182 17.8064 5.6734C18.706 6.05498 19.5196 6.61369 20.1988 7.31625C20.878 8.01882 21.4089 8.85089 21.7598 9.76289C22.1107 10.6749 22.2746 11.6482 22.2415 12.6248V16.7415C22.3436 18.4465 22.8127 20.1094 23.6165 21.6165C24.1918 22.5282 24.8745 23.3675 25.6498 24.1165H4.27484Z" fill="black"/>
<path d="M14.9999 28.5665C15.5249 28.5544 16.0286 28.3571 16.4221 28.0094C16.8156 27.6616 17.0734 27.186 17.1499 26.6665H12.7666C12.8453 27.2001 13.1152 27.6869 13.526 28.0364C13.9368 28.3859 14.4606 28.5743 14.9999 28.5665V28.5665Z" fill="black"/>
</svg>
