<svg width="35" height="35" viewBox="0 0 35 35" fill="none" xmlns="http://www.w3.org/2000/svg">
<path d="M12.4105 29.1667H12.2938C9.94351 29.1461 7.62719 28.6032 5.51257 27.5771C5.1236 27.3944 4.80332 27.092 4.59864 26.7141C4.39396 26.3362 4.31561 25.9027 4.37507 25.4771C4.43974 25.0486 4.63814 24.6515 4.94194 24.3425C5.24573 24.0334 5.6394 23.8283 6.06674 23.7563C7.37721 23.5815 8.63791 23.1397 9.77091 22.4584C7.80385 20.9204 6.2895 18.879 5.38835 16.5504C4.4872 14.2218 4.23281 11.6927 4.65216 9.23127C4.70901 8.84138 4.87669 8.47604 5.13523 8.17873C5.39376 7.88141 5.73228 7.66462 6.11049 7.55418C6.47845 7.43862 6.87224 7.43368 7.24298 7.53998C7.61372 7.64627 7.94508 7.85912 8.19591 8.1521C9.04758 9.26887 10.1178 10.2004 11.3414 10.8899C12.5649 11.5794 13.9162 12.0124 15.3126 12.1625C15.3793 10.4444 16.1176 8.82106 17.3688 7.64168C17.9936 7.04343 18.7311 6.57551 19.5386 6.26517C20.346 5.95483 21.2071 5.80829 22.0717 5.83407C22.9363 5.85986 23.7871 6.05747 24.5746 6.41538C25.3621 6.77329 26.0704 7.28434 26.6584 7.91876C26.8116 8.0542 27.0019 8.14051 27.2047 8.16651C27.4076 8.19251 27.6135 8.15701 27.7959 8.0646C28.1436 7.9006 28.5308 7.83887 28.9123 7.8866C29.2937 7.93433 29.6538 8.08955 29.9504 8.33416C30.247 8.57877 30.4679 8.90268 30.5873 9.2681C30.7068 9.63351 30.7199 10.0254 30.6251 10.3979C30.2887 11.7835 29.6514 13.0781 28.7584 14.1896C28.5616 18.3382 26.7326 22.2408 23.6702 25.0464C20.6078 27.8519 16.5604 29.333 12.4105 29.1667ZM12.4105 26.25H12.5272C14.2227 26.3084 15.913 26.0295 17.5 25.4297C19.087 24.8299 20.5391 23.921 21.7722 22.7557C23.0053 21.5904 23.9948 20.192 24.6833 18.6415C25.3719 17.0909 25.7458 15.4191 25.7834 13.7229C25.8075 13.2581 25.9992 12.8177 26.323 12.4834C26.6787 12.0331 26.982 11.5438 27.2272 11.025C26.7018 11.026 26.1821 10.9161 25.7021 10.7025C25.2222 10.4889 24.7927 10.1764 24.4417 9.78543C24.1043 9.45082 23.7035 9.1869 23.2627 9.00911C22.822 8.83132 22.3503 8.74323 21.8751 8.75001C21.3951 8.7376 20.9175 8.82011 20.4695 8.99279C20.0215 9.16547 19.6121 9.42493 19.2647 9.75627C18.7959 10.2011 18.4522 10.7612 18.268 11.3805C18.0837 11.9999 18.0653 12.6568 18.2147 13.2854L18.5938 14.9479L16.8876 15.0646C15.1392 15.2072 13.3807 14.968 11.7338 14.3637C10.087 13.7593 8.59124 12.8043 7.35007 11.5646C7.29684 13.4844 7.77707 15.3812 8.73738 17.0444C9.69768 18.7076 11.1004 20.0718 12.7897 20.9855L14.1751 21.773L13.2563 23.0855C12.2627 24.3885 10.9014 25.3638 9.34799 25.8855C10.3445 26.1352 11.3686 26.2577 12.3959 26.25H12.4105Z" fill="white"/>
</svg>
