<svg width="13" height="14" viewBox="0 0 13 14" fill="none" xmlns="http://www.w3.org/2000/svg">
<path d="M12.1429 6.14286C12.2464 6.14286 12.3465 6.18037 12.4245 6.24844C12.5026 6.31651 12.5533 6.41054 12.5674 6.51314L12.5714 6.57143V11.4286C12.5715 11.9771 12.3611 12.5048 11.9837 12.903C11.6064 13.3011 11.0906 13.5393 10.5429 13.5686L10.4286 13.5714H2.14286C1.59419 13.5715 1.06642 13.3611 0.668277 12.9835C0.270138 12.606 0.0319729 12.0902 0.00285721 11.5423L0 11.428V6.57086C0.00017697 6.46232 0.0415277 6.35789 0.115704 6.27866C0.18988 6.19943 0.291356 6.15129 0.399645 6.14396C0.507933 6.13664 0.614968 6.17067 0.69914 6.23919C0.783311 6.30771 0.83835 6.40562 0.853143 6.51314L0.857143 6.57143V11.4286C0.857103 11.7544 0.98074 12.068 1.20307 12.3061C1.4254 12.5443 1.72983 12.6891 2.05486 12.7114L2.14286 12.7143H10.4286C10.7544 12.7143 11.068 12.5907 11.3061 12.3684C11.5443 12.146 11.6891 11.8416 11.7114 11.5166L11.7143 11.4286V6.57143C11.7143 6.45776 11.7594 6.34876 11.8398 6.26838C11.9202 6.18801 12.0292 6.14286 12.1429 6.14286V6.14286ZM6.208 0.00685719L6.24629 0.0017143L6.29543 0L6.32971 0.00228568L6.38343 0.0114286L6.42229 0.0222857L6.45657 0.0348572L6.49657 0.0554285L6.52571 0.0737143L6.54743 0.0891428L6.58857 0.125143L10.2251 3.76171C10.302 3.83809 10.3471 3.94075 10.3513 4.04904C10.3556 4.15732 10.3186 4.26319 10.2479 4.34533C10.1772 4.42746 10.078 4.47977 9.97034 4.49171C9.86263 4.50366 9.7544 4.47436 9.66743 4.40971L9.61943 4.368L6.71429 1.46286V9.14286C6.71428 9.24642 6.67678 9.34648 6.6087 9.42453C6.54063 9.50258 6.4466 9.55334 6.344 9.56743L6.28571 9.57143C6.18215 9.57142 6.08209 9.53392 6.00404 9.46585C5.92599 9.39778 5.87523 9.30374 5.86114 9.20114L5.85714 9.14286V1.46286L2.952 4.368C2.87944 4.44058 2.78323 4.48471 2.68088 4.49237C2.57854 4.50002 2.47684 4.47069 2.39429 4.40971L2.34629 4.368C2.2737 4.29544 2.22957 4.19923 2.22192 4.09688C2.21426 3.99454 2.24359 3.89284 2.30457 3.81029L2.34629 3.76171L5.98286 0.125714L6.04571 0.0742858L6.1 0.0428572L6.14914 0.0228571L6.208 0.00742858V0.00685719Z" fill="black"/>
</svg>
