<svg width="14" height="16" viewBox="0 0 14 16" fill="none" xmlns="http://www.w3.org/2000/svg">
<g clip-path="url(#clip0)">
<path d="M9.53408 2.00004C9.68138 1.82494 9.85625 1.68605 10.0487 1.59129C10.2412 1.49653 10.4474 1.44775 10.6557 1.44775C10.8641 1.44775 11.0703 1.49653 11.2628 1.59129C11.4552 1.68605 11.6301 1.82494 11.7774 2.00004C11.9247 2.17513 12.0416 2.383 12.1213 2.61178C12.201 2.84055 12.242 3.08575 12.242 3.33337C12.242 3.58099 12.201 3.82619 12.1213 4.05497C12.0416 4.28374 11.9247 4.49161 11.7774 4.66671L4.20617 13.6667L1.12158 14.6667L1.96283 11L9.53408 2.00004Z" stroke="black" stroke-width="2" stroke-linecap="round" stroke-linejoin="round"/>
</g>
<defs>
<clipPath id="clip0">
<rect width="13.46" height="16" fill="white"/>
</clipPath>
</defs>
</svg>
