<svg width="18" height="18" viewBox="0 0 18 18" fill="none" xmlns="http://www.w3.org/2000/svg">
<path d="M12.1875 3.88499C12.0971 4.00365 12.0576 4.15335 12.0776 4.30117C12.0975 4.44899 12.1754 4.58283 12.294 4.67324C13.1589 5.33187 13.8065 6.23456 14.1533 7.26483C14.5 8.2951 14.5301 9.40566 14.2396 10.4532C13.949 11.5007 13.3512 12.4371 12.5233 13.1416C11.6954 13.846 10.6753 14.2862 9.59478 14.4052L10.1025 13.8975C10.2032 13.7971 10.2621 13.6624 10.2674 13.5203C10.2728 13.3783 10.2241 13.2395 10.1313 13.1319C10.0385 13.0242 9.90837 12.9557 9.76709 12.9401C9.62581 12.9245 9.48386 12.963 9.36978 13.0477L9.30678 13.1025L7.80678 14.6025C7.71152 14.6977 7.6536 14.824 7.64355 14.9583C7.6335 15.0927 7.672 15.2261 7.75203 15.3345L7.80678 15.3975L9.30678 16.8975C9.40728 16.9972 9.54169 17.0554 9.68318 17.0603C9.82467 17.0653 9.96283 17.0168 10.0701 16.9244C10.1774 16.832 10.2458 16.7025 10.2619 16.5619C10.2779 16.4212 10.2403 16.2796 10.1565 16.1655L10.1025 16.1025L9.54003 15.54C10.8623 15.4305 12.1204 14.9227 13.1483 14.0837C14.1761 13.2447 14.9255 12.1138 15.2976 10.8402C15.6697 9.56663 15.647 8.21016 15.2325 6.94974C14.818 5.68932 14.0312 4.58415 12.9758 3.77999C12.8572 3.68952 12.7076 3.64984 12.5598 3.66967C12.4119 3.6895 12.2781 3.76722 12.1875 3.88574V3.88499ZM7.89753 1.10249C7.7922 1.20796 7.73303 1.35093 7.73303 1.49999C7.73303 1.64906 7.7922 1.79202 7.89753 1.89749L8.46003 2.45999C7.159 2.56716 5.91949 3.05992 4.9 3.87527C3.8805 4.69061 3.12733 5.79149 2.73681 7.03715C2.34628 8.28281 2.33614 9.61663 2.70768 10.8681C3.07922 12.1195 3.81555 13.2317 4.82253 14.0625C4.87951 14.1096 4.9452 14.145 5.01586 14.1667C5.08652 14.1883 5.16075 14.1959 5.23433 14.1889C5.30791 14.1819 5.37939 14.1605 5.44469 14.1259C5.50999 14.0912 5.56783 14.0441 5.61491 13.9871C5.66199 13.9301 5.69738 13.8644 5.71907 13.7938C5.74076 13.7231 5.74833 13.6489 5.74133 13.5753C5.73433 13.5017 5.7129 13.4303 5.67828 13.365C5.64366 13.2997 5.59651 13.2418 5.53953 13.1947C4.71507 12.5144 4.10938 11.6062 3.79816 10.5836C3.48694 9.56095 3.48399 8.46929 3.78967 7.44501C4.09536 6.42072 4.69612 5.50924 5.5169 4.82445C6.33767 4.13966 7.34205 3.71195 8.40453 3.59474L7.89753 4.10249C7.84383 4.15441 7.80101 4.2165 7.77156 4.28514C7.74212 4.35378 7.72663 4.4276 7.72602 4.50229C7.72541 4.57697 7.73967 4.65104 7.76799 4.72015C7.79631 4.78927 7.8381 4.85205 7.89094 4.90484C7.94378 4.95763 8.0066 4.99937 8.07575 5.02762C8.14489 5.05587 8.21897 5.07007 8.29365 5.06938C8.36834 5.0687 8.44214 5.05315 8.51076 5.02363C8.57937 4.99412 8.64142 4.95124 8.69328 4.89749L10.1933 3.39749C10.2986 3.29202 10.3578 3.14906 10.3578 2.99999C10.3578 2.85093 10.2986 2.70796 10.1933 2.60249L8.69328 1.10249C8.58781 0.997155 8.44485 0.937988 8.29578 0.937988C8.14672 0.937988 8.00375 0.997155 7.89828 1.10249H7.89753Z" fill="black"/>
</svg>
