<svg width="20" height="20" viewBox="0 0 20 20" fill="none" xmlns="http://www.w3.org/2000/svg">
<path d="M10 2C12.817 2 14.415 3.923 14.647 6.246H14.717C16.532 6.246 18 7.758 18 9.623C18 9.718 17.996 9.813 17.989 9.906C17.6667 9.50394 17.292 9.14677 16.875 8.844C16.565 7.911 15.712 7.246 14.718 7.246H14.647C14.3991 7.246 14.16 7.15392 13.9762 6.98762C13.7923 6.82132 13.6768 6.59266 13.652 6.346C13.45 4.325 12.109 3 10 3C7.886 3 6.551 4.316 6.348 6.345C6.32344 6.59184 6.20801 6.82075 6.02414 6.98725C5.84026 7.15376 5.60106 7.24598 5.353 7.246H5.283C4.027 7.246 3 8.304 3 9.623C3 10.943 4.028 12 5.282 12H7.948C7.85953 12.3274 7.8003 12.6621 7.771 13H5.282C3.469 13 2 11.488 2 9.623C2 7.82 3.373 6.347 5.102 6.251L5.353 6.246C5.587 3.908 7.183 2 10 2ZM9 13.5C9 14.6935 9.47411 15.8381 10.318 16.682C11.1619 17.5259 12.3065 18 13.5 18C14.6935 18 15.8381 17.5259 16.682 16.682C17.5259 15.8381 18 14.6935 18 13.5C18 12.3065 17.5259 11.1619 16.682 10.318C15.8381 9.47411 14.6935 9 13.5 9C12.3065 9 11.1619 9.47411 10.318 10.318C9.47411 11.1619 9 12.3065 9 13.5ZM15.5 10.5C15.6326 10.5 15.7598 10.5527 15.8536 10.6464C15.9473 10.7402 16 10.8674 16 11V12.5C16 12.6326 15.9473 12.7598 15.8536 12.8536C15.7598 12.9473 15.6326 13 15.5 13H14C13.8674 13 13.7402 12.9473 13.6464 12.8536C13.5527 12.7598 13.5 12.6326 13.5 12.5C13.5 12.3674 13.5527 12.2402 13.6464 12.1464C13.7402 12.0527 13.8674 12 14 12H14.468C14.0882 11.7896 13.6502 11.7086 13.2203 11.7692C12.7903 11.8298 12.3918 12.0288 12.085 12.336C11.99 12.4233 11.8649 12.4705 11.7359 12.4678C11.6069 12.465 11.484 12.4125 11.3928 12.3212C11.3017 12.2299 11.2493 12.1069 11.2468 11.9779C11.2442 11.8489 11.2916 11.7239 11.379 11.629C11.846 11.1622 12.4539 10.8625 13.1086 10.7762C13.7632 10.69 14.428 10.8221 15 11.152V11C15 10.8674 15.0527 10.7402 15.1464 10.6464C15.2402 10.5527 15.3674 10.5 15.5 10.5ZM14.624 16.032C14.2014 16.2027 13.7454 16.2749 13.2908 16.243C12.8361 16.2112 12.3946 16.0761 12 15.848V16C12 16.1326 11.9473 16.2598 11.8536 16.3536C11.7598 16.4473 11.6326 16.5 11.5 16.5C11.3674 16.5 11.2402 16.4473 11.1464 16.3536C11.0527 16.2598 11 16.1326 11 16V14.5C11 14.3674 11.0527 14.2402 11.1464 14.1464C11.2402 14.0527 11.3674 14 11.5 14H13C13.1326 14 13.2598 14.0527 13.3536 14.1464C13.4473 14.2402 13.5 14.3674 13.5 14.5C13.5 14.6326 13.4473 14.7598 13.3536 14.8536C13.2598 14.9473 13.1326 15 13 15H12.532C12.9118 15.2104 13.3498 15.2914 13.7797 15.2308C14.2097 15.1702 14.6082 14.9712 14.915 14.664C15.01 14.5767 15.1351 14.5295 15.2641 14.5322C15.3931 14.535 15.516 14.5875 15.6072 14.6788C15.6983 14.7701 15.7507 14.8931 15.7532 15.0221C15.7558 15.1511 15.7084 15.2761 15.621 15.371C15.336 15.656 14.997 15.881 14.624 16.031V16.032Z" fill="white"/>
</svg>
