<svg width="24" height="24" viewBox="0 0 24 24" fill="none" xmlns="http://www.w3.org/2000/svg">
<path d="M11.2732 3.68676C11.1829 3.59129 11.1124 3.47898 11.0656 3.35626C11.0188 3.23353 10.9966 3.10278 11.0003 2.97148C11.004 2.84017 11.0336 2.71089 11.0872 2.591C11.1409 2.47112 11.2177 2.36298 11.3132 2.27276C11.4086 2.18254 11.5209 2.11201 11.6437 2.0652C11.7664 2.01838 11.8971 1.9962 12.0284 1.99991C12.1597 2.00363 12.289 2.03317 12.4089 2.08684C12.5288 2.14052 12.6369 2.21729 12.7272 2.31276L21.2272 11.3128C21.4027 11.4984 21.5005 11.7442 21.5005 11.9998C21.5005 12.2553 21.4027 12.5011 21.2272 12.6868L12.7272 21.6878C12.6375 21.7853 12.5294 21.8641 12.4091 21.9195C12.2888 21.975 12.1586 22.0059 12.0262 22.0106C11.8938 22.0153 11.7618 21.9937 11.6379 21.9469C11.5139 21.9002 11.4005 21.8293 11.3042 21.7383C11.2078 21.6474 11.1305 21.5382 11.0768 21.4171C11.023 21.296 10.9938 21.1655 10.991 21.033C10.9881 20.9006 11.0115 20.7689 11.06 20.6456C11.1084 20.5223 11.1809 20.4098 11.2732 20.3148L19.1252 11.9998L11.2732 3.68676V3.68676Z" fill="black"/>
</svg>
