<svg width="22" height="22" viewBox="0 0 22 22" fill="none" xmlns="http://www.w3.org/2000/svg">
<path d="M16.1117 9.07062C15.8565 6.51532 14.0987 4.40002 11 4.40002C7.90125 4.40002 6.14565 6.49882 5.88825 9.07062L5.61215 9.07612C3.71025 9.18172 2.19995 10.8031 2.19995 12.7853C2.19995 14.8368 3.81695 16.5 5.81015 16.5H9.89995V15.4H5.81015C4.43075 15.4 3.29995 14.2362 3.29995 12.7853C3.29995 11.3333 4.43075 10.1706 5.81015 10.1706H5.88825C6.16095 10.1706 6.42392 10.0693 6.62616 9.88641C6.8284 9.70348 6.95548 9.45195 6.98275 9.18062C7.20605 6.94652 8.67455 5.50002 11 5.50002C13.3188 5.50002 14.795 6.95752 15.0172 9.18062C15.0449 9.45904 15.1779 9.71637 15.3889 9.90002H18.4634C17.8268 9.3645 17.0217 9.07079 16.1898 9.07062H16.1117ZM9.89995 12.1154C9.89791 11.9697 9.92486 11.825 9.97922 11.6897C10.0336 11.5545 10.1143 11.4314 10.2166 11.3276C10.319 11.2239 10.4409 11.1414 10.5754 11.0852C10.7099 11.029 10.8542 11 11 11H18.7297C19.0187 11 19.2962 11.1138 19.5021 11.3167C19.7079 11.5197 19.8256 11.7956 19.8297 12.0846V12.1C19.8317 12.2458 19.8047 12.3905 19.7504 12.5257C19.696 12.6609 19.6153 12.784 19.513 12.8878C19.4106 12.9916 19.2887 13.074 19.1542 13.1302C19.0197 13.1865 18.8754 13.2154 18.7297 13.2154H11C10.7107 13.2154 10.433 13.1015 10.2271 12.8983C10.0213 12.6951 9.90371 12.419 9.89995 12.1297V12.1154ZM11.0088 14.3154H18.7087L18.7022 17.6044C18.701 18.1871 18.4687 18.7456 18.0562 19.1572C17.6438 19.5688 17.0849 19.8 16.5021 19.8H13.2022C12.9129 19.8 12.6264 19.743 12.3592 19.6321C12.092 19.5213 11.8493 19.3589 11.645 19.1541C11.4406 18.9493 11.2787 18.7063 11.1684 18.4389C11.058 18.1715 11.0016 17.8849 11.0022 17.5956L11.0088 14.3154V14.3154ZM13.7588 15.4154C13.6129 15.4154 13.473 15.4734 13.3698 15.5765C13.2667 15.6797 13.2088 15.8196 13.2088 15.9654C13.2088 16.1113 13.2667 16.2512 13.3698 16.3543C13.473 16.4575 13.6129 16.5154 13.7588 16.5154H15.9588C16.1046 16.5154 16.2445 16.4575 16.3477 16.3543C16.4508 16.2512 16.5088 16.1113 16.5088 15.9654C16.5088 15.8196 16.4508 15.6797 16.3477 15.5765C16.2445 15.4734 16.1046 15.4154 15.9588 15.4154H13.7588Z" fill="#FF0000"/>
</svg>
