<svg width="18" height="18" viewBox="0 0 18 18" fill="none" xmlns="http://www.w3.org/2000/svg">
<path d="M11.9969 11.5543L16.0442 7.57356L16.0955 7.51506C16.1714 7.41308 16.2081 7.28714 16.1986 7.16033C16.1892 7.03353 16.1344 6.91438 16.0442 6.82476L11.9969 2.84586L11.9411 2.79816C11.6171 2.55516 11.1401 2.78916 11.1401 3.22026V5.13726L10.9376 5.15076C7.73089 5.40456 5.85259 7.43406 5.40439 11.1151C5.34679 11.5876 5.88859 11.8837 6.23959 11.5705C7.52749 10.4203 8.85859 9.70566 10.2401 9.41946C10.4615 9.37356 10.6838 9.33846 10.9079 9.31416L11.1401 9.29346V11.1799L11.1446 11.2537C11.1986 11.6614 11.6927 11.8531 11.9969 11.5543ZM11.0033 6.04806L12.0401 5.97876V4.14906L15.1415 7.19826L12.0401 10.2493V8.30796L10.8197 8.41776H10.8125C9.27979 8.58246 7.83349 9.19626 6.46819 10.2196C6.73639 9.01446 7.19449 8.10816 7.79659 7.45926C8.54359 6.65376 9.58759 6.16056 11.0033 6.04716V6.04806Z" fill="#606060"/>
<path d="M4.94995 3.6001C4.35321 3.6001 3.78092 3.83715 3.35896 4.25911C2.937 4.68106 2.69995 5.25336 2.69995 5.8501V13.0501C2.69995 13.6468 2.937 14.2191 3.35896 14.6411C3.78092 15.063 4.35321 15.3001 4.94995 15.3001H12.15C12.7467 15.3001 13.319 15.063 13.7409 14.6411C14.1629 14.2191 14.4 13.6468 14.4 13.0501V12.1501C14.4 12.0308 14.3525 11.9163 14.2682 11.8319C14.1838 11.7475 14.0693 11.7001 13.95 11.7001C13.8306 11.7001 13.7161 11.7475 13.6318 11.8319C13.5474 11.9163 13.5 12.0308 13.5 12.1501V13.0501C13.5 13.4081 13.3577 13.7515 13.1045 14.0047C12.8514 14.2579 12.508 14.4001 12.15 14.4001H4.94995C4.59191 14.4001 4.24853 14.2579 3.99536 14.0047C3.74218 13.7515 3.59995 13.4081 3.59995 13.0501V5.8501C3.59995 5.49206 3.74218 5.14868 3.99536 4.8955C4.24853 4.64233 4.59191 4.5001 4.94995 4.5001H7.64995C7.7693 4.5001 7.88376 4.45269 7.96815 4.3683C8.05254 4.2839 8.09995 4.16945 8.09995 4.0501C8.09995 3.93075 8.05254 3.81629 7.96815 3.7319C7.88376 3.64751 7.7693 3.6001 7.64995 3.6001H4.94995Z" fill="#606060"/>
</svg>
