<svg width="18" height="18" viewBox="0 0 18 18" fill="none" xmlns="http://www.w3.org/2000/svg">
<path d="M2.25 3.9375C2.25 3.48995 2.42779 3.06072 2.74426 2.74426C3.06072 2.42779 3.48995 2.25 3.9375 2.25H11.8125C12.2601 2.25 12.6893 2.42779 13.0057 2.74426C13.3222 3.06072 13.5 3.48995 13.5 3.9375V7.90537C13.1261 7.86406 12.7489 7.86406 12.375 7.90537V3.9375C12.375 3.78832 12.3157 3.64524 12.2102 3.53975C12.1048 3.43426 11.9617 3.375 11.8125 3.375H3.9375C3.78832 3.375 3.64524 3.43426 3.53975 3.53975C3.43426 3.64524 3.375 3.78832 3.375 3.9375V11.8125C3.375 11.9617 3.43426 12.1048 3.53975 12.2102C3.64524 12.3157 3.78832 12.375 3.9375 12.375H7.90537C7.86406 12.7489 7.86406 13.1261 7.90537 13.5H3.9375C3.48995 13.5 3.06072 13.3222 2.74426 13.0057C2.42779 12.6893 2.25 12.2601 2.25 11.8125V3.9375ZM11.0858 5.78925C11.1381 5.8415 11.1797 5.90357 11.2081 5.97191C11.2364 6.04025 11.251 6.11351 11.251 6.1875C11.251 6.26149 11.2364 6.33475 11.2081 6.40309C11.1797 6.47143 11.1381 6.5335 11.0858 6.58575L7.14825 10.5233C7.096 10.5756 7.03393 10.6172 6.96559 10.6456C6.89725 10.6739 6.82399 10.6885 6.75 10.6885C6.67601 10.6885 6.60275 10.6739 6.53441 10.6456C6.46607 10.6172 6.404 10.5756 6.35175 10.5233L4.66425 8.83575C4.61195 8.78345 4.57047 8.72136 4.54216 8.65303C4.51386 8.5847 4.49929 8.51146 4.49929 8.4375C4.49929 8.36354 4.51386 8.2903 4.54216 8.22197C4.57047 8.15364 4.61195 8.09155 4.66425 8.03925C4.71655 7.98695 4.77864 7.94547 4.84697 7.91716C4.9153 7.88886 4.98854 7.87429 5.0625 7.87429C5.13646 7.87429 5.2097 7.88886 5.27803 7.91716C5.34636 7.94547 5.40845 7.98695 5.46075 8.03925L6.75 9.32963L10.2892 5.78925C10.3415 5.73687 10.4036 5.69531 10.4719 5.66695C10.5403 5.63859 10.6135 5.62399 10.6875 5.62399C10.7615 5.62399 10.8347 5.63859 10.9031 5.66695C10.9714 5.69531 11.0335 5.73687 11.0858 5.78925V5.78925ZM9 12.9375C9 13.9818 9.41484 14.9833 10.1533 15.7217C10.8917 16.4602 11.8932 16.875 12.9375 16.875C13.9818 16.875 14.9833 16.4602 15.7217 15.7217C16.4602 14.9833 16.875 13.9818 16.875 12.9375C16.875 11.8932 16.4602 10.8917 15.7217 10.1533C14.9833 9.41484 13.9818 9 12.9375 9C11.8932 9 10.8917 9.41484 10.1533 10.1533C9.41484 10.8917 9 11.8932 9 12.9375ZM11.8834 10.611C12.3432 10.4252 12.844 10.3642 13.3349 10.4344C13.8259 10.5045 14.2896 10.7032 14.679 11.0104C14.7336 10.8949 14.8258 10.8015 14.9406 10.7455C15.0553 10.6894 15.1857 10.6741 15.3103 10.7019C15.4349 10.7298 15.5464 10.7993 15.6263 10.8989C15.7062 10.9985 15.7498 11.1223 15.75 11.25V12.375C15.75 12.5242 15.6907 12.6673 15.5852 12.7727C15.4798 12.8782 15.3367 12.9375 15.1875 12.9375H14.0625C13.927 12.9378 13.796 12.8891 13.6935 12.8005C13.591 12.7119 13.5239 12.5892 13.5046 12.4551C13.4853 12.321 13.5151 12.1844 13.5884 12.0705C13.6618 11.9566 13.7738 11.8729 13.9039 11.835C13.579 11.6074 13.1842 11.5017 12.789 11.5367C12.3938 11.5717 12.0237 11.7451 11.7439 12.0262C11.6916 12.0785 11.6295 12.1199 11.5612 12.1481C11.4929 12.1764 11.4197 12.1909 11.3458 12.1908C11.1965 12.1907 11.0534 12.1313 10.9479 12.0257C10.8425 11.9201 10.7833 11.7769 10.7834 11.6276C10.7835 11.4783 10.8429 11.3352 10.9485 11.2298C11.2158 10.9627 11.5341 10.7523 11.8845 10.611H11.8834ZM13.9905 15.264C13.5047 15.4601 12.9738 15.5166 12.4576 15.4272C11.9413 15.3377 11.4604 15.1059 11.0689 14.7578C10.9887 14.8324 10.8884 14.882 10.7803 14.9003C10.6723 14.9187 10.5612 14.905 10.4609 14.861C10.3605 14.8169 10.2752 14.7445 10.2156 14.6526C10.1559 14.5607 10.1244 14.4533 10.125 14.3438V13.2188C10.125 13.0696 10.1843 12.9265 10.2898 12.821C10.3952 12.7155 10.5383 12.6562 10.6875 12.6562H11.8125C11.9617 12.6562 12.1048 12.7155 12.2102 12.821C12.3157 12.9265 12.375 13.0696 12.375 13.2188C12.375 13.3679 12.3157 13.511 12.2102 13.6165C12.1048 13.722 11.9617 13.7812 11.8125 13.7812H11.6775C11.8306 13.9525 12.017 14.0907 12.2254 14.1874C12.4337 14.2841 12.6596 14.3372 12.8892 14.3435C13.1188 14.3498 13.3473 14.3092 13.5606 14.2241C13.774 14.1391 13.9677 14.0113 14.13 13.8488C14.2356 13.7431 14.3789 13.6838 14.5282 13.6838C14.6776 13.6838 14.8209 13.7431 14.9265 13.8488C15.0321 13.9544 15.0915 14.0976 15.0915 14.247C15.0915 14.3964 15.0321 14.5396 14.9265 14.6452C14.6592 14.9123 14.3409 15.1227 13.9905 15.264V15.264Z" fill="black"/>
</svg>
