<svg width="18" height="18" viewBox="0 0 18 18" fill="none" xmlns="http://www.w3.org/2000/svg">
<path d="M2.69995 4.49995C2.69995 4.02256 2.88959 3.56472 3.22716 3.22716C3.56472 2.88959 4.02256 2.69995 4.49995 2.69995H12.0411C12.5184 2.70005 12.9762 2.88976 13.3137 3.22735L14.7726 4.68625C15.1101 5.02374 15.2998 5.4815 15.3 5.95885V8.63995C15.0123 8.49277 14.7108 8.3743 14.4 8.28625V5.95885C14.3999 5.72018 14.305 5.49129 14.1363 5.32255L12.6774 3.86365C12.5086 3.69486 12.2797 3.6 12.0411 3.59995H11.7V5.84995C11.7 6.20799 11.5577 6.55137 11.3045 6.80454C11.0514 7.05772 10.708 7.19995 10.35 7.19995H6.74995C6.39191 7.19995 6.04853 7.05772 5.79536 6.80454C5.54218 6.55137 5.39995 6.20799 5.39995 5.84995V3.59995H4.49995C4.26126 3.59995 4.03234 3.69477 3.86356 3.86356C3.69477 4.03234 3.59995 4.26126 3.59995 4.49995V13.4999C3.59995 13.7386 3.69477 13.9676 3.86356 14.1363C4.03234 14.3051 4.26126 14.3999 4.49995 14.3999V10.3499C4.49995 9.99191 4.64218 9.64853 4.89536 9.39536C5.14853 9.14218 5.49191 8.99995 5.84995 8.99995H10.2033C9.84055 9.25555 9.51295 9.55795 9.23125 9.89995H5.84995C5.7306 9.89995 5.61614 9.94736 5.53175 10.0318C5.44736 10.1161 5.39995 10.2306 5.39995 10.3499V14.3999H8.28625C8.37535 14.714 8.49325 15.0146 8.63995 15.2999H4.49995C4.02256 15.2999 3.56472 15.1103 3.22716 14.7727C2.88959 14.4352 2.69995 13.9773 2.69995 13.4999V4.49995ZM6.29995 3.59995V5.84995C6.29995 5.9693 6.34736 6.08376 6.43175 6.16815C6.51614 6.25254 6.6306 6.29995 6.74995 6.29995H10.35C10.4693 6.29995 10.5838 6.25254 10.6681 6.16815C10.7525 6.08376 10.8 5.9693 10.8 5.84995V3.59995H6.29995ZM8.99995 13.0499C8.99995 14.1241 9.42665 15.1542 10.1862 15.9137C10.9457 16.6733 11.9758 17.0999 13.05 17.0999C14.1241 17.0999 15.1542 16.6733 15.9137 15.9137C16.6733 15.1542 17.1 14.1241 17.1 13.0499C17.1 11.9758 16.6733 10.9457 15.9137 10.1862C15.1542 9.42665 14.1241 8.99995 13.05 8.99995C11.9758 8.99995 10.9457 9.42665 10.1862 10.1862C9.42665 10.9457 8.99995 11.9758 8.99995 13.0499V13.0499ZM14.85 10.3499C14.9693 10.3499 15.0838 10.3974 15.1682 10.4818C15.2525 10.5661 15.3 10.6806 15.3 10.7999V12.1499C15.3 12.2693 15.2525 12.3838 15.1682 12.4681C15.0838 12.5525 14.9693 12.5999 14.85 12.5999H13.5C13.3806 12.5999 13.2661 12.5525 13.1818 12.4681C13.0974 12.3838 13.05 12.2693 13.05 12.1499C13.05 12.0306 13.0974 11.9161 13.1818 11.8318C13.2661 11.7474 13.3806 11.6999 13.5 11.6999H13.9212C13.5793 11.5106 13.1851 11.4377 12.7982 11.4923C12.4113 11.5468 12.0526 11.7259 11.7765 12.0024C11.691 12.0809 11.5784 12.1234 11.4623 12.1209C11.3462 12.1184 11.2356 12.0712 11.1535 11.989C11.0715 11.9068 11.0244 11.7961 11.022 11.68C11.0197 11.5639 11.0624 11.4514 11.1411 11.366C11.5614 10.9459 12.1085 10.6762 12.6977 10.5986C13.2869 10.5209 13.8852 10.6398 14.4 10.9368V10.7999C14.4 10.6806 14.4474 10.5661 14.5318 10.4818C14.6161 10.3974 14.7306 10.3499 14.85 10.3499ZM14.0616 15.3287C13.6812 15.4824 13.2708 15.5474 12.8616 15.5187C12.4524 15.49 12.0551 15.3684 11.7 15.1631V15.2999C11.7 15.4193 11.6525 15.5338 11.5681 15.6181C11.4838 15.7025 11.3693 15.7499 11.25 15.7499C11.1306 15.7499 11.0161 15.7025 10.9318 15.6181C10.8474 15.5338 10.8 15.4193 10.8 15.2999V13.9499C10.8 13.8306 10.8474 13.7161 10.9318 13.6318C11.0161 13.5474 11.1306 13.4999 11.25 13.4999H12.6C12.7193 13.4999 12.8338 13.5474 12.9181 13.6318C13.0025 13.7161 13.05 13.8306 13.05 13.9499C13.05 14.0693 13.0025 14.1838 12.9181 14.2681C12.8338 14.3525 12.7193 14.3999 12.6 14.3999H12.1788C12.5206 14.5893 12.9148 14.6622 13.3017 14.6076C13.6886 14.5531 14.0473 14.374 14.3235 14.0975C14.4089 14.019 14.5215 13.9765 14.6376 13.979C14.7537 13.9815 14.8643 14.0287 14.9464 14.1109C15.0284 14.1931 15.0756 14.3038 15.0779 14.4199C15.0802 14.536 15.0376 14.6485 14.9589 14.7338C14.7033 14.9903 14.3973 15.1928 14.0616 15.3278V15.3287Z" fill="white"/>
</svg>
