<svg width="16" height="16" viewBox="0 0 16 16" fill="none" xmlns="http://www.w3.org/2000/svg">
<path d="M14.4633 10.098L14.5193 10.146C14.6041 10.2308 14.6556 10.3432 14.6644 10.4627C14.6732 10.5823 14.6387 10.701 14.5673 10.7973L14.5193 10.8533L13.0393 12.3327L14.5193 13.8127C14.6039 13.8974 14.6553 14.0097 14.6641 14.1291C14.6729 14.2485 14.6386 14.3671 14.5673 14.4633L14.5193 14.5193C14.4346 14.6041 14.3221 14.6556 14.2026 14.6644C14.083 14.6732 13.9643 14.6387 13.868 14.5673L13.812 14.5193L12.332 13.0393L10.8533 14.5193C10.7686 14.6039 10.6563 14.6553 10.5369 14.6641C10.4175 14.6729 10.2989 14.6386 10.2027 14.5673L10.146 14.5193C10.0612 14.4346 10.0098 14.3221 10.001 14.2026C9.99215 14.083 10.0266 13.9643 10.098 13.868L10.146 13.812L11.6253 12.332L10.1467 10.8533C10.062 10.7687 10.0105 10.6564 10.0016 10.537C9.99264 10.4176 10.0269 10.299 10.098 10.2027L10.146 10.146C10.2308 10.0612 10.3432 10.0098 10.4627 10.001C10.5823 9.99215 10.701 10.0266 10.7973 10.098L10.8533 10.146L12.3327 11.6253L13.8127 10.1467C13.8973 10.062 14.0096 10.0105 14.129 10.0016C14.2484 9.99264 14.367 10.0269 14.4633 10.098V10.098ZM12.5 2C12.8978 2 13.2794 2.15804 13.5607 2.43934C13.842 2.72064 14 3.10218 14 3.5V7C14 7.39782 13.842 7.77936 13.5607 8.06066C13.2794 8.34196 12.8978 8.5 12.5 8.5H8.5V12.5C8.5 12.8978 8.34196 13.2794 8.06066 13.5607C7.77936 13.842 7.39782 14 7 14H3.5C3.10218 14 2.72064 13.842 2.43934 13.5607C2.15804 13.2794 2 12.8978 2 12.5V3.5C2 3.10218 2.15804 2.72064 2.43934 2.43934C2.72064 2.15804 3.10218 2 3.5 2H12.5ZM7.5 8.49933H3V12.5C3 12.776 3.224 13 3.5 13H7C7.13261 13 7.25979 12.9473 7.35355 12.8536C7.44732 12.7598 7.5 12.6326 7.5 12.5V8.49933V8.49933ZM12.5 3H8.5V7.5H12.5C12.6326 7.5 12.7598 7.44732 12.8536 7.35355C12.9473 7.25979 13 7.13261 13 7V3.5C13 3.36739 12.9473 3.24021 12.8536 3.14645C12.7598 3.05268 12.6326 3 12.5 3ZM7.5 3H3.5C3.36739 3 3.24021 3.05268 3.14645 3.14645C3.05268 3.24021 3 3.36739 3 3.5V7.49933L7.5 7.5V3Z" fill="#FF0000"/>
</svg>
