<svg width="18" height="18" viewBox="0 0 18 18" fill="none" xmlns="http://www.w3.org/2000/svg">
<path d="M2.81256 10.125H15.1876C15.3281 10.1247 15.4637 10.1771 15.5676 10.2718C15.6714 10.3665 15.7361 10.4967 15.7488 10.6367C15.7615 10.7767 15.7213 10.9163 15.6362 11.0282C15.5511 11.14 15.4271 11.216 15.2888 11.241L15.1876 11.25H2.81256C2.672 11.2503 2.53643 11.1979 2.43255 11.1032C2.32868 11.0085 2.26403 10.8783 2.25133 10.7383C2.23862 10.5983 2.2788 10.4587 2.36393 10.3468C2.44907 10.235 2.57299 10.159 2.71131 10.134L2.81256 10.125H15.1876H2.81256ZM2.81256 6.75H15.1876C15.3281 6.74974 15.4637 6.80212 15.5676 6.89682C15.6714 6.99152 15.7361 7.12169 15.7488 7.26168C15.7615 7.40166 15.7213 7.54134 15.6362 7.65319C15.5511 7.76504 15.4271 7.84096 15.2888 7.866L15.1876 7.875H2.81256C2.672 7.87526 2.53643 7.82288 2.43255 7.72818C2.32868 7.63348 2.26403 7.50332 2.25133 7.36333C2.23862 7.22334 2.2788 7.08367 2.36393 6.97182C2.44907 6.85997 2.57299 6.78404 2.71131 6.759L2.81256 6.75H15.1876H2.81256Z" fill="black"/>
</svg>
