<svg width="28" height="28" viewBox="0 0 28 28" fill="none" xmlns="http://www.w3.org/2000/svg">
<path d="M2.33317 9.33366H25.6665M13.9998 26.8337C21.0873 26.8337 26.8332 21.0878 26.8332 14.0003C26.8332 6.91283 21.0873 1.16699 13.9998 1.16699C6.91234 1.16699 1.1665 6.91283 1.1665 14.0003C1.1665 21.0878 6.91234 26.8337 13.9998 26.8337ZM13.9998 26.8337C17.4998 26.8337 18.6665 21.0003 18.6665 14.0003C18.6665 7.00033 17.4998 1.16699 13.9998 1.16699C10.4998 1.16699 9.33317 7.00033 9.33317 14.0003C9.33317 21.0003 10.4998 26.8337 13.9998 26.8337ZM2.33317 18.667H25.6665H2.33317Z" stroke="black" stroke-width="2"/>
</svg>
