<svg width="28" height="28" viewBox="0 0 28 28" fill="none" xmlns="http://www.w3.org/2000/svg">
<path d="M11.6667 15.1663L9.33333 17.4997M14 25.6663C14 25.6663 3.5 20.9997 3.5 12.833V5.83301L14 2.33301L24.5 5.83301V12.833C24.5 20.9997 14 25.6663 14 25.6663ZM14 16.333C14.4596 16.333 14.9148 16.2425 15.3394 16.0666C15.764 15.8907 16.1499 15.6329 16.4749 15.3079C16.7999 14.9829 17.0577 14.597 17.2336 14.1724C17.4095 13.7478 17.5 13.2926 17.5 12.833C17.5 12.3734 17.4095 11.9183 17.2336 11.4936C17.0577 11.069 16.7999 10.6831 16.4749 10.3581C16.1499 10.0331 15.764 9.77532 15.3394 9.59943C14.9148 9.42354 14.4596 9.33301 14 9.33301C13.0717 9.33301 12.1815 9.70176 11.5251 10.3581C10.8687 11.0145 10.5 11.9048 10.5 12.833C10.5 13.7613 10.8687 14.6515 11.5251 15.3079C12.1815 15.9643 13.0717 16.333 14 16.333V16.333ZM14 9.33301V5.83301V9.33301ZM14 19.833V16.333V19.833ZM7 12.833H10.5H7ZM17.5 12.833H21H17.5ZM9.33333 8.16634L11.6667 10.4997L9.33333 8.16634ZM16.3333 15.1663L18.6667 17.4997L16.3333 15.1663ZM18.6667 8.16634L16.3333 10.4997L18.6667 8.16634Z" stroke="black" stroke-width="2"/>
</svg>
