<?xml version="1.0" standalone="no"?>
<!DOCTYPE svg PUBLIC "-//W3C//DTD SVG 20010904//EN"
 "http://www.w3.org/TR/2001/REC-SVG-20010904/DTD/svg10.dtd">
<svg version="1.0" xmlns="http://www.w3.org/2000/svg"
 width="24.000000pt" height="24.000000pt" viewBox="0 0 24.000000 24.000000"
 preserveAspectRatio="xMidYMid meet">
<metadata>
Created by potrace 1.16, written by Peter Selinger 2001-2019
</metadata>
<g transform="translate(0.000000,24.000000) scale(0.047059,-0.043636)"
fill="#000000" stroke="none">
<path d="M216 507 c-30 -17 -36 -26 -36 -54 0 -38 1 -38 -44 -17 -33 16 -36
16 -70 -5 l-36 -23 0 -128 0 -127 106 -62 c58 -33 110 -61 115 -61 4 0 24 8
44 17 30 14 35 22 35 50 0 37 6 40 39 17 21 -15 26 -15 62 1 l40 18 -3 134 -3
134 -106 63 -107 63 -36 -20z m144 -56 l95 -58 3 -126 3 -126 -31 -16 -30 -16
0 50 0 49 -40 -21 c-33 -18 -40 -27 -40 -52 0 -49 -10 -72 -36 -83 l-23 -11
-3 121 -3 122 -80 48 c-44 26 -91 54 -104 62 l-24 14 31 16 c37 19 46 20 36 4
-4 -6 -3 -8 4 -4 11 7 56 -16 140 -72 44 -30 52 -40 52 -66 0 -54 12 -61 59
-36 41 21 42 22 39 67 l-3 47 -102 55 c-56 31 -102 59 -103 62 0 7 41 28 55
28 6 0 53 -26 105 -58z m-182 -179 c3 -45 6 -51 37 -68 29 -15 35 -24 35 -51
0 -18 -3 -33 -7 -33 -3 0 -35 17 -70 37 l-63 37 0 84 0 84 33 -21 c28 -18 32
-26 35 -69z"/>
</g>
</svg>
