<svg width="18" height="18" viewBox="0 0 18 18" fill="none" xmlns="http://www.w3.org/2000/svg">
<path d="M2.25 7.5H10.5V9H2.25V7.5ZM2.25 6H10.5V4.5H2.25V6ZM2.25 12H7.5V10.5H2.25V12ZM13.5075 9.6525L14.04 9.12C14.1094 9.05047 14.1918 8.99531 14.2825 8.95768C14.3733 8.92004 14.4705 8.90067 14.5687 8.90067C14.667 8.90067 14.7642 8.92004 14.855 8.95768C14.9457 8.99531 15.0281 9.05047 15.0975 9.12L15.63 9.6525C15.9225 9.945 15.9225 10.4175 15.63 10.71L15.0975 11.2425L13.5075 9.6525ZM12.975 10.185L9 14.16V15.75H10.59L14.565 11.775L12.975 10.185V10.185Z" fill="black"/>
</svg>
