<svg width="21" height="20" viewBox="0 0 21 20" fill="none" xmlns="http://www.w3.org/2000/svg">
<path d="M10.2581 1.66663C5.55649 1.66663 1.70972 5.41663 1.70972 9.99996C1.70972 14.5833 5.55649 18.3333 10.2581 18.3333C14.9597 18.3333 18.8065 14.5833 18.8065 9.99996C18.8065 5.41663 14.9597 1.66663 10.2581 1.66663ZM10.2581 16.6666C6.48827 16.6666 3.41939 13.675 3.41939 9.99996C3.41939 6.32496 6.48827 3.33329 10.2581 3.33329C14.0279 3.33329 17.0968 6.32496 17.0968 9.99996C17.0968 13.675 14.0279 16.6666 10.2581 16.6666ZM5.98391 12.5H14.5323V14.1666H5.98391V12.5ZM8.80488 9.33329L7.18068 7.74996L5.98391 8.91663L8.80488 11.6666L14.5323 6.08329L13.3355 4.91663L8.80488 9.33329Z" fill="#606060"/>
</svg>
