<svg width="28" height="28" viewBox="0 0 28 28" fill="none" xmlns="http://www.w3.org/2000/svg">
<path d="M25.305 19.0983L26.635 17.9317L25.4683 15.9133L23.7767 16.485C23.4033 16.17 22.9833 15.925 22.5167 15.75L22.1667 14H19.8333L19.4833 15.7383C19.0167 15.9133 18.5967 16.1583 18.2233 16.4733L16.5317 15.9017L15.365 17.92L16.695 19.0867C16.6017 19.67 16.6017 19.9733 16.695 20.5567L15.365 21.7233L16.5317 23.7417L18.2233 23.17C18.5967 23.485 19.0167 23.73 19.4833 23.905L19.8333 25.6667H22.1667L22.5167 23.9283C22.9833 23.7533 23.4033 23.5083 23.7767 23.1933L25.4683 23.765L26.635 21.7467L25.305 20.58C25.3983 19.985 25.3983 19.6817 25.305 19.0983ZM21 22.1667C19.7167 22.1667 18.6667 21.1167 18.6667 19.8333C18.6667 18.55 19.7167 17.5 21 17.5C22.2833 17.5 23.3333 18.55 23.3333 19.8333C23.3333 21.1167 22.2833 22.1667 21 22.1667ZM22.1667 4.66667V11.6667H19.8333V7H17.5V14H15.1667V5.83333H8.16667V22.1667H14V24.5H3.5V22.1667H5.83333V3.5H17.5V4.66667H22.1667ZM14 15.1667H11.6667V12.8333H14V15.1667Z" fill="black"/>
</svg>
