<svg width="21" height="20" viewBox="0 0 21 20" fill="none" xmlns="http://www.w3.org/2000/svg">
<path d="M10.2581 1.66675C5.55649 1.66675 1.70972 5.41675 1.70972 10.0001C1.70972 14.5834 5.55649 18.3334 10.2581 18.3334C14.9597 18.3334 18.8065 14.5834 18.8065 10.0001C18.8065 5.41675 14.9597 1.66675 10.2581 1.66675ZM10.2581 16.6667C6.48827 16.6667 3.41939 13.6751 3.41939 10.0001C3.41939 6.32508 6.48827 3.33341 10.2581 3.33341C14.0279 3.33341 17.0968 6.32508 17.0968 10.0001C17.0968 13.6751 14.0279 16.6667 10.2581 16.6667ZM5.98391 12.5001H14.5323V14.1667H5.98391V12.5001ZM8.80488 9.33341L7.18068 7.75008L5.98391 8.91675L8.80488 11.6667L14.5323 6.08341L13.3355 4.91675L8.80488 9.33341Z" fill="white"/>
</svg>
