<svg width="24" height="24" viewBox="0 0 24 24" fill="none" xmlns="http://www.w3.org/2000/svg">
<path d="M11.9302 2.29992C9.89022 1.79992 7.91022 1.94992 6.16022 2.57992C5.44022 2.83992 5.25022 3.79992 5.85022 4.28992C6.9927 5.22359 7.913 6.3999 8.54433 7.73348C9.17566 9.06705 9.50219 10.5245 9.50022 11.9999C9.50219 13.4754 9.17566 14.9328 8.54433 16.2664C7.913 17.5999 6.9927 18.7763 5.85022 19.7099C5.26022 20.1999 5.43022 21.1599 6.16022 21.4099C7.20022 21.7899 8.33022 21.9999 9.50022 21.9999C15.5502 21.9999 20.3502 16.6199 19.3702 10.3999C18.7602 6.47992 15.7802 3.23992 11.9302 2.29992V2.29992Z" fill="black"/>
</svg>
