<svg width="28" height="28" viewBox="0 0 28 28" fill="none" xmlns="http://www.w3.org/2000/svg">
<path d="M20.6035 11.1183L12.3552 19.3666L7.4085 14.4199L9.0535 12.7749L12.3552 16.0766L18.9585 9.47327L20.6035 11.1183V11.1183ZM4.66683 13.9999C4.66683 11.2816 5.85683 8.84327 7.7235 7.13993L10.5002 9.9166V2.9166H3.50016L6.06683 5.48327C3.78016 7.6066 2.3335 10.6283 2.3335 13.9999C2.3335 20.0549 6.94183 25.0249 12.8335 25.6083V23.2516C8.23683 22.6799 4.66683 18.7483 4.66683 13.9999ZM25.6668 13.9999C25.6668 7.94493 21.0585 2.97493 15.1668 2.3916V4.74827C19.7635 5.31994 23.3335 9.2516 23.3335 13.9999C23.3335 16.7183 22.1435 19.1566 20.2768 20.8599L17.5002 18.0833V25.0833H24.5002L21.9335 22.5166C24.2202 20.3933 25.6668 17.3716 25.6668 13.9999Z" fill="black"/>
</svg>
