<svg width="50" height="50" viewBox="0 0 50 50" fill="none" xmlns="http://www.w3.org/2000/svg">
<g clip-path="url(#clip0)">
<path d="M24.993 0C38.8502 0.10918 49.9522 10.8346 50 25.2545C50.0436 38.4729 39.2461 50.2846 24.3645 49.9947C10.7903 49.7301 -0.297241 38.673 0.0060789 24.2359C0.274243 11.4848 10.6776 0.131836 24.993 0ZM19.7274 28.7807C20.6162 28.7807 21.5055 28.7826 22.3944 28.7797C22.8194 28.7783 23.0856 28.8744 22.9865 29.4072C22.7686 30.5791 22.5901 31.7578 22.3987 32.9338C22.0379 35.1506 21.6783 37.3678 21.3199 39.5852C21.2856 39.7965 21.1752 40.0223 21.4475 40.1682C21.9108 40.416 23.178 40.1004 23.4399 39.6629C26.7615 34.1199 30.0817 28.576 33.3998 23.0309C34.0893 21.8775 33.7276 21.2539 32.3752 21.2438C30.8196 21.2328 29.2637 21.2328 27.7078 21.2438C27.2246 21.2467 26.8963 21.1828 27.0127 20.5506C27.3598 18.6699 27.6768 16.7838 27.9947 14.8979C28.2434 13.4213 28.4815 11.9432 28.7094 10.4631C28.7434 10.2424 28.8778 9.96895 28.518 9.83809C28.1433 9.72927 27.7441 9.73953 27.3755 9.86744C27.0069 9.99536 26.6871 10.2346 26.4604 10.5521C23.9051 14.8076 21.3519 19.0642 18.8006 23.3221C18.0307 24.6066 17.2375 25.8777 16.5039 27.183C15.9541 28.1605 16.3151 28.766 17.3942 28.7777C18.1717 28.7861 18.9498 28.7795 19.7278 28.7811L19.7276 28.7807H19.7274Z" fill="white"/>
</g>
<defs>
<clipPath id="clip0">
<rect width="50" height="50" fill="white"/>
</clipPath>
</defs>
</svg>
