<svg width="28" height="28" viewBox="0 0 28 28" fill="none" xmlns="http://www.w3.org/2000/svg">
<path fill-rule="evenodd" clip-rule="evenodd" d="M15.1668 3.50016C15.1668 3.19074 15.0439 2.894 14.8251 2.6752C14.6063 2.45641 14.3096 2.3335 14.0002 2.3335C13.6907 2.3335 13.394 2.45641 13.1752 2.6752C12.9564 2.894 12.8335 3.19074 12.8335 3.50016V4.66683C12.8335 4.97625 12.9564 5.27299 13.1752 5.49179C13.394 5.71058 13.6907 5.8335 14.0002 5.8335C14.3096 5.8335 14.6063 5.71058 14.8251 5.49179C15.0439 5.27299 15.1668 4.97625 15.1668 4.66683V3.50016ZM6.65833 5.00866C6.43829 4.79615 6.14359 4.67855 5.83769 4.68121C5.5318 4.68387 5.23918 4.80657 5.02287 5.02287C4.80657 5.23918 4.68387 5.5318 4.68121 5.83769C4.67855 6.14359 4.79615 6.43829 5.00866 6.65833L6.17533 7.825C6.39537 8.03751 6.69007 8.15511 6.99596 8.15245C7.30186 8.14979 7.59448 8.02709 7.81078 7.81078C8.02709 7.59448 8.14979 7.30186 8.15245 6.99596C8.15511 6.69007 8.03751 6.39537 7.825 6.17533L6.65833 5.00866ZM22.9917 5.00866C22.7729 4.78995 22.4762 4.66708 22.1668 4.66708C21.8575 4.66708 21.5608 4.78995 21.342 5.00866L20.1753 6.17533C19.9628 6.39537 19.8452 6.69007 19.8479 6.99596C19.8505 7.30186 19.9732 7.59448 20.1895 7.81078C20.4059 8.02709 20.6985 8.14979 21.0044 8.15245C21.3103 8.15511 21.605 8.03751 21.825 7.825L22.9917 6.65833C23.2104 6.43955 23.3332 6.14285 23.3332 5.8335C23.3332 5.52414 23.2104 5.22745 22.9917 5.00866V5.00866ZM14.0002 8.16683C12.4531 8.16683 10.9693 8.78141 9.87537 9.87537C8.78141 10.9693 8.16683 12.4531 8.16683 14.0002C8.16683 15.5473 8.78141 17.031 9.87537 18.125C10.9693 19.2189 12.4531 19.8335 14.0002 19.8335C15.5473 19.8335 17.031 19.2189 18.125 18.125C19.2189 17.031 19.8335 15.5473 19.8335 14.0002C19.8335 12.4531 19.2189 10.9693 18.125 9.87537C17.031 8.78141 15.5473 8.16683 14.0002 8.16683V8.16683ZM3.50016 12.8335C3.19074 12.8335 2.894 12.9564 2.6752 13.1752C2.45641 13.394 2.3335 13.6907 2.3335 14.0002C2.3335 14.3096 2.45641 14.6063 2.6752 14.8251C2.894 15.0439 3.19074 15.1668 3.50016 15.1668H4.66683C4.97625 15.1668 5.27299 15.0439 5.49179 14.8251C5.71058 14.6063 5.8335 14.3096 5.8335 14.0002C5.8335 13.6907 5.71058 13.394 5.49179 13.1752C5.27299 12.9564 4.97625 12.8335 4.66683 12.8335H3.50016ZM23.3335 12.8335C23.0241 12.8335 22.7273 12.9564 22.5085 13.1752C22.2897 13.394 22.1668 13.6907 22.1668 14.0002C22.1668 14.3096 22.2897 14.6063 22.5085 14.8251C22.7273 15.0439 23.0241 15.1668 23.3335 15.1668H24.5002C24.8096 15.1668 25.1063 15.0439 25.3251 14.8251C25.5439 14.6063 25.6668 14.3096 25.6668 14.0002C25.6668 13.6907 25.5439 13.394 25.3251 13.1752C25.1063 12.9564 24.8096 12.8335 24.5002 12.8335H23.3335ZM7.825 21.825C7.93642 21.7174 8.0253 21.5886 8.08645 21.4463C8.14759 21.304 8.17978 21.1509 8.18112 20.996C8.18247 20.8411 8.15295 20.6874 8.09429 20.5441C8.03563 20.4007 7.949 20.2704 7.83946 20.1609C7.72992 20.0513 7.59966 19.9647 7.45628 19.906C7.3129 19.8474 7.15927 19.8179 7.00436 19.8192C6.84945 19.8206 6.69636 19.8527 6.55402 19.9139C6.41169 19.975 6.28295 20.0639 6.17533 20.1753L5.00866 21.342C4.89723 21.4496 4.80836 21.5784 4.74721 21.7207C4.68607 21.863 4.65388 22.0161 4.65254 22.171C4.65119 22.3259 4.68071 22.4796 4.73937 22.6229C4.79803 22.7663 4.88466 22.8966 4.9942 23.0061C5.10374 23.1157 5.234 23.2023 5.37738 23.261C5.52076 23.3196 5.67439 23.3491 5.8293 23.3478C5.98421 23.3464 6.1373 23.3143 6.27963 23.2531C6.42197 23.192 6.55071 23.1031 6.65833 22.9917L7.825 21.825ZM21.825 20.1753C21.605 19.9628 21.3103 19.8452 21.0044 19.8479C20.6985 19.8505 20.4059 19.9732 20.1895 20.1895C19.9732 20.4059 19.8505 20.6985 19.8479 21.0044C19.8452 21.3103 19.9628 21.605 20.1753 21.825L21.342 22.9917C21.562 23.2042 21.8567 23.3218 22.1626 23.3191C22.4685 23.3165 22.7611 23.1938 22.9775 22.9775C23.1938 22.7611 23.3165 22.4685 23.3191 22.1626C23.3218 21.8567 23.2042 21.562 22.9917 21.342L21.825 20.1753ZM15.1668 23.3335C15.1668 23.0241 15.0439 22.7273 14.8251 22.5085C14.6063 22.2897 14.3096 22.1668 14.0002 22.1668C13.6907 22.1668 13.394 22.2897 13.1752 22.5085C12.9564 22.7273 12.8335 23.0241 12.8335 23.3335V24.5002C12.8335 24.8096 12.9564 25.1063 13.1752 25.3251C13.394 25.5439 13.6907 25.6668 14.0002 25.6668C14.3096 25.6668 14.6063 25.5439 14.8251 25.3251C15.0439 25.1063 15.1668 24.8096 15.1668 24.5002V23.3335Z" fill="black"/>
</svg>
