<svg width="25" height="25" viewBox="0 0 25 25" fill="none" xmlns="http://www.w3.org/2000/svg">
<path d="M17.1875 6.64063C17.1875 5.71353 16.9126 4.80725 16.3975 4.03639C15.8824 3.26554 15.1504 2.66473 14.2938 2.30994C13.4373 1.95516 12.4948 1.86233 11.5855 2.0432C10.6762 2.22406 9.841 2.67051 9.18544 3.32606C8.52988 3.98162 8.08344 4.81686 7.90257 5.72614C7.7217 6.63543 7.81453 7.57793 8.16932 8.43446C8.5241 9.29099 9.12491 10.0231 9.89577 10.5381C10.6666 11.0532 11.5729 11.3281 12.5 11.3281C13.7428 11.3267 14.9342 10.8324 15.813 9.95365C16.6918 9.07487 17.1861 7.8834 17.1875 6.64063ZM12.5 9.76563C11.8819 9.76563 11.2777 9.58235 10.7638 9.23897C10.2499 8.89559 9.8494 8.40753 9.61288 7.83651C9.37635 7.26549 9.31447 6.63716 9.43505 6.03097C9.55563 5.42478 9.85325 4.86796 10.2903 4.43092C10.7273 3.99388 11.2842 3.69625 11.8903 3.57567C12.4965 3.45509 13.1249 3.51698 13.6959 3.7535C14.2669 3.99003 14.755 4.39057 15.0983 4.90447C15.4417 5.41837 15.625 6.02256 15.625 6.64063C15.6241 7.46914 15.2945 8.26346 14.7087 8.84931C14.1228 9.43516 13.3285 9.7647 12.5 9.76563V9.76563ZM18.3594 12.1094C17.4323 12.1094 16.526 12.3843 15.7551 12.8994C14.9843 13.4144 14.3835 14.1465 14.0287 15.003C13.6739 15.8596 13.5811 16.8021 13.7619 17.7114C13.9428 18.6206 14.3893 19.4559 15.0448 20.1114C15.7004 20.767 16.5356 21.2134 17.4449 21.3943C18.3542 21.5752 19.2967 21.4823 20.1532 21.1276C21.0097 20.7728 21.7418 20.172 22.2569 19.4011C22.772 18.6303 23.0469 17.724 23.0469 16.7969C23.0455 15.5541 22.5512 14.3626 21.6724 13.4839C20.7936 12.6051 19.6022 12.1108 18.3594 12.1094V12.1094ZM18.3594 19.9219C17.7413 19.9219 17.1371 19.7386 16.6232 19.3952C16.1093 19.0518 15.7088 18.5638 15.4723 17.9928C15.2357 17.4217 15.1738 16.7934 15.2944 16.1872C15.415 15.581 15.7126 15.0242 16.1497 14.5872C16.5867 14.1501 17.1435 13.8525 17.7497 13.7319C18.3559 13.6113 18.9842 13.6732 19.5553 13.9098C20.1263 14.1463 20.6143 14.5468 20.9577 15.0607C21.3011 15.5746 21.4844 16.1788 21.4844 16.7969C21.4834 17.6254 21.1539 18.4197 20.5681 19.0056C19.9822 19.5914 19.1879 19.9209 18.3594 19.9219V19.9219ZM6.64063 12.1094C5.71353 12.1094 4.80725 12.3843 4.03639 12.8994C3.26554 13.4144 2.66473 14.1465 2.30994 15.003C1.95516 15.8596 1.86233 16.8021 2.0432 17.7114C2.22406 18.6206 2.67051 19.4559 3.32606 20.1114C3.98162 20.767 4.81686 21.2134 5.72614 21.3943C6.63543 21.5752 7.57793 21.4823 8.43446 21.1276C9.29098 20.7728 10.0231 20.172 10.5381 19.4011C11.0532 18.6303 11.3281 17.724 11.3281 16.7969C11.3267 15.5541 10.8324 14.3626 9.95365 13.4839C9.07487 12.6051 7.8834 12.1108 6.64063 12.1094V12.1094ZM6.64063 19.9219C6.02256 19.9219 5.41837 19.7386 4.90447 19.3952C4.39057 19.0518 3.99003 18.5638 3.7535 17.9928C3.51698 17.4217 3.45509 16.7934 3.57567 16.1872C3.69625 15.581 3.99388 15.0242 4.43092 14.5872C4.86796 14.1501 5.42478 13.8525 6.03097 13.7319C6.63716 13.6113 7.26549 13.6732 7.83651 13.9098C8.40753 14.1463 8.89559 14.5468 9.23897 15.0607C9.58235 15.5746 9.76563 16.1788 9.76563 16.7969C9.7647 17.6254 9.43516 18.4197 8.84931 19.0056C8.26346 19.5914 7.46914 19.9209 6.64063 19.9219Z" fill="black"/>
</svg>
