<svg width="18" height="18" viewBox="0 0 18 18" fill="none" xmlns="http://www.w3.org/2000/svg">
<path d="M5.64905 4.47513C5.59682 4.42289 5.55539 4.36087 5.52714 4.29262C5.49888 4.22436 5.48434 4.15121 5.48435 4.07734C5.48437 4.00347 5.49893 3.93033 5.52721 3.86208C5.5555 3.79384 5.59694 3.73184 5.64919 3.67961L8.60231 0.727192C8.7078 0.62174 8.85085 0.5625 9 0.5625C9.14915 0.5625 9.2922 0.62174 9.39769 0.727192L12.3508 3.67961C12.404 3.73162 12.4464 3.79367 12.4754 3.86216C12.5045 3.93065 12.5196 4.00423 12.5201 4.07863C12.5205 4.15302 12.5062 4.22676 12.4779 4.29558C12.4496 4.3644 12.408 4.42692 12.3554 4.47954C12.3028 4.53215 12.2402 4.5738 12.1714 4.60209C12.1026 4.63037 12.0289 4.64472 11.9545 4.64431C11.8801 4.6439 11.8065 4.62874 11.738 4.5997C11.6695 4.57066 11.6075 4.52832 11.5554 4.47513L9.5625 2.48275V9.00002C9.5625 9.1492 9.50324 9.29228 9.39775 9.39777C9.29226 9.50326 9.14918 9.56252 9 9.56252C8.85082 9.56252 8.70774 9.50326 8.60225 9.39777C8.49676 9.29228 8.4375 9.1492 8.4375 9.00002V2.48275L6.44456 4.47513C6.39233 4.52737 6.33032 4.56882 6.26208 4.59709C6.19383 4.62537 6.12068 4.63992 6.0468 4.63992C5.97293 4.63992 5.89978 4.62537 5.83153 4.59709C5.76328 4.56882 5.70128 4.52737 5.64905 4.47513V4.47513ZM14.0625 6.18752H12.375C12.2258 6.18752 12.0827 6.24678 11.9773 6.35227C11.8718 6.45776 11.8125 6.60084 11.8125 6.75002C11.8125 6.8992 11.8718 7.04228 11.9773 7.14777C12.0827 7.25326 12.2258 7.31252 12.375 7.31252H14.0625V14.625H3.9375V7.31252H5.625C5.77418 7.31252 5.91726 7.25326 6.02275 7.14777C6.12824 7.04228 6.1875 6.8992 6.1875 6.75002C6.1875 6.60084 6.12824 6.45776 6.02275 6.35227C5.91726 6.24678 5.77418 6.18752 5.625 6.18752H3.9375C3.63923 6.18786 3.35328 6.30649 3.14237 6.5174C2.93147 6.7283 2.81283 7.01425 2.8125 7.31252V14.625C2.81283 14.9233 2.93147 15.2092 3.14237 15.4201C3.35328 15.6311 3.63923 15.7497 3.9375 15.75H14.0625C14.3608 15.7497 14.6467 15.6311 14.8576 15.4201C15.0685 15.2092 15.1872 14.9233 15.1875 14.625V7.31252C15.1872 7.01425 15.0685 6.7283 14.8576 6.5174C14.6467 6.30649 14.3608 6.18786 14.0625 6.18752V6.18752Z" fill="#0066FF"/>
</svg>
