<svg width="20" height="20" viewBox="0 0 20 20" fill="none" xmlns="http://www.w3.org/2000/svg">
<path d="M8.75 3.28125H3.75C3.62568 3.28125 3.50645 3.33064 3.41854 3.41854C3.33064 3.50645 3.28125 3.62568 3.28125 3.75V8.75C3.28125 8.87432 3.33064 8.99355 3.41854 9.08146C3.50645 9.16936 3.62568 9.21875 3.75 9.21875H8.75C8.87432 9.21875 8.99355 9.16936 9.08146 9.08146C9.16936 8.99355 9.21875 8.87432 9.21875 8.75V3.75C9.21875 3.62568 9.16936 3.50645 9.08146 3.41854C8.99355 3.33064 8.87432 3.28125 8.75 3.28125V3.28125ZM8.28125 8.28125H4.21875V4.21875H8.28125V8.28125ZM16.25 3.28125H11.25C11.1257 3.28125 11.0065 3.33064 10.9185 3.41854C10.8306 3.50645 10.7812 3.62568 10.7812 3.75V8.75C10.7812 8.87432 10.8306 8.99355 10.9185 9.08146C11.0065 9.16936 11.1257 9.21875 11.25 9.21875H16.25C16.3743 9.21875 16.4935 9.16936 16.5815 9.08146C16.6694 8.99355 16.7188 8.87432 16.7188 8.75V3.75C16.7188 3.62568 16.6694 3.50645 16.5815 3.41854C16.4935 3.33064 16.3743 3.28125 16.25 3.28125ZM15.7812 8.28125H11.7188V4.21875H15.7812V8.28125ZM8.75 10.7812H3.75C3.62568 10.7812 3.50645 10.8306 3.41854 10.9185C3.33064 11.0065 3.28125 11.1257 3.28125 11.25V16.25C3.28125 16.3743 3.33064 16.4935 3.41854 16.5815C3.50645 16.6694 3.62568 16.7188 3.75 16.7188H8.75C8.87432 16.7188 8.99355 16.6694 9.08146 16.5815C9.16936 16.4935 9.21875 16.3743 9.21875 16.25V11.25C9.21875 11.1257 9.16936 11.0065 9.08146 10.9185C8.99355 10.8306 8.87432 10.7812 8.75 10.7812V10.7812ZM8.28125 15.7812H4.21875V11.7188H8.28125V15.7812ZM16.25 10.7812H11.25C11.1257 10.7812 11.0065 10.8306 10.9185 10.9185C10.8306 11.0065 10.7812 11.1257 10.7812 11.25V16.25C10.7812 16.3743 10.8306 16.4935 10.9185 16.5815C11.0065 16.6694 11.1257 16.7188 11.25 16.7188H16.25C16.3743 16.7188 16.4935 16.6694 16.5815 16.5815C16.6694 16.4935 16.7188 16.3743 16.7188 16.25V11.25C16.7188 11.1257 16.6694 11.0065 16.5815 10.9185C16.4935 10.8306 16.3743 10.7812 16.25 10.7812ZM15.7812 15.7812H11.7188V11.7188H15.7812V15.7812Z" fill="#606060"/>
</svg>
