<svg width="18" height="18" viewBox="0 0 18 18" fill="none" xmlns="http://www.w3.org/2000/svg">
<path fill-rule="evenodd" clip-rule="evenodd" d="M1.05249 10.0001C1.05249 7.89226 1.88982 5.87075 3.38029 4.38029C4.87075 2.88982 6.89226 2.05249 9.00009 2.05249C11.1079 2.05249 13.1294 2.88982 14.6199 4.38029C16.1104 5.87075 16.9477 7.89226 16.9477 10.0001C16.9477 12.1079 16.1104 14.1294 14.6199 15.6199C13.1294 17.1104 11.1079 17.9477 9.00009 17.9477C6.89226 17.9477 4.87075 17.1104 3.38029 15.6199C1.88982 14.1294 1.05249 12.1079 1.05249 10.0001V10.0001ZM9.00009 3.19249C7.1946 3.19249 5.46306 3.90972 4.18639 5.18639C2.90972 6.46306 2.19249 8.1946 2.19249 10.0001C2.19249 11.8056 2.90972 13.5371 4.18639 14.8138C5.46306 16.0905 7.1946 16.8077 9.00009 16.8077C10.8056 16.8077 12.5371 16.0905 13.8138 14.8138C15.0905 13.5371 15.8077 11.8056 15.8077 10.0001C15.8077 8.1946 15.0905 6.46306 13.8138 5.18639C12.5371 3.90972 10.8056 3.19249 9.00009 3.19249V3.19249ZM11.8249 7.17649C11.9374 7.28901 12.0006 7.44159 12.0006 7.60069C12.0006 7.75979 11.9374 7.91237 11.8249 8.02489L9.84849 10.0001L11.8249 11.9753C11.9376 12.088 12.0008 12.2408 12.0008 12.4001C12.0008 12.5594 11.9376 12.7122 11.8249 12.8249C11.7122 12.9376 11.5594 13.0008 11.4001 13.0008C11.2408 13.0008 11.088 12.9376 10.9753 12.8249L9.00009 10.8485L7.02489 12.8249C6.9691 12.8807 6.90288 12.9249 6.82999 12.9551C6.7571 12.9853 6.67898 13.0008 6.60009 13.0008C6.5212 13.0008 6.44308 12.9853 6.37019 12.9551C6.2973 12.9249 6.23108 12.8807 6.17529 12.8249C6.1195 12.7691 6.07525 12.7029 6.04506 12.63C6.01487 12.5571 5.99933 12.479 5.99933 12.4001C5.99933 12.3212 6.01487 12.2431 6.04506 12.1702C6.07525 12.0973 6.1195 12.0311 6.17529 11.9753L8.15169 10.0001L6.17529 8.02489C6.06263 7.91223 5.99933 7.75942 5.99933 7.60009C5.99933 7.44076 6.06263 7.28795 6.17529 7.17529C6.28795 7.06263 6.44076 6.99933 6.60009 6.99933C6.75942 6.99933 6.91223 7.06263 7.02489 7.17529L9.00009 9.15169L10.9753 7.17529C11.031 7.11942 11.0972 7.07508 11.1701 7.04484C11.243 7.01459 11.3212 6.99902 11.4001 6.99902C11.479 6.99902 11.5572 7.01459 11.63 7.04484C11.7029 7.07508 11.7692 7.11942 11.8249 7.17529V7.17649Z" fill="#FF0000"/>
</svg>
