<svg width="20" height="20" viewBox="0 0 20 20" fill="none" xmlns="http://www.w3.org/2000/svg">
<path fill-rule="evenodd" clip-rule="evenodd" d="M6.19042 3.80957C6.443 3.80957 6.68525 3.90991 6.86385 4.08852C7.04246 4.26712 7.1428 4.50936 7.1428 4.76195V6.66671C7.1428 6.9193 7.04246 7.16154 6.86385 7.34015C6.68525 7.51875 6.443 7.61909 6.19042 7.61909C5.93783 7.61909 5.69559 7.51875 5.51698 7.34015C5.33838 7.16154 5.23804 6.9193 5.23804 6.66671V4.76195C5.23804 4.50936 5.33838 4.26712 5.51698 4.08852C5.69559 3.90991 5.93783 3.80957 6.19042 3.80957V3.80957Z" stroke="#535353" stroke-linecap="round" stroke-linejoin="round"/>
<path d="M17.619 5.71436H7.14282" stroke="#535353" stroke-linecap="round" stroke-linejoin="round"/>
<path d="M5.238 5.71436H2.38086" stroke="#535353" stroke-linecap="round" stroke-linejoin="round"/>
<path fill-rule="evenodd" clip-rule="evenodd" d="M6.19042 13.3334C6.443 13.3334 6.68525 13.4337 6.86385 13.6123C7.04246 13.7909 7.1428 14.0332 7.1428 14.2858V16.1905C7.1428 16.4431 7.04246 16.6853 6.86385 16.864C6.68525 17.0426 6.443 17.1429 6.19042 17.1429C5.93783 17.1429 5.69559 17.0426 5.51698 16.864C5.33838 16.6853 5.23804 16.4431 5.23804 16.1905V14.2858C5.23804 14.0332 5.33838 13.7909 5.51698 13.6123C5.69559 13.4337 5.93783 13.3334 6.19042 13.3334Z" stroke="#535353" stroke-linecap="round" stroke-linejoin="round"/>
<path d="M17.619 15.2382H7.14282" stroke="#535353" stroke-linecap="round" stroke-linejoin="round"/>
<path d="M5.238 15.2382H2.38086" stroke="#535353" stroke-linecap="round" stroke-linejoin="round"/>
<path fill-rule="evenodd" clip-rule="evenodd" d="M13.8093 8.57153C14.0619 8.57153 14.3041 8.67187 14.4827 8.85048C14.6614 9.02909 14.7617 9.27133 14.7617 9.52391V11.4287C14.7617 11.6813 14.6614 11.9235 14.4827 12.1021C14.3041 12.2807 14.0619 12.3811 13.8093 12.3811C13.5567 12.3811 13.3145 12.2807 13.1359 12.1021C12.9573 11.9235 12.8569 11.6813 12.8569 11.4287V9.52391C12.8569 9.27133 12.9573 9.02909 13.1359 8.85048C13.3145 8.67187 13.5567 8.57153 13.8093 8.57153V8.57153Z" stroke="#535353" stroke-linecap="round" stroke-linejoin="round"/>
<path d="M12.857 10.4762H2.38086" stroke="#535353" stroke-linecap="round" stroke-linejoin="round"/>
<path d="M17.6189 10.4762H14.7617" stroke="#535353" stroke-linecap="round" stroke-linejoin="round"/>
</svg>
