<svg width="18" height="18" viewBox="0 0 18 18" fill="none" xmlns="http://www.w3.org/2000/svg">
<path d="M3 8.28563C2.99989 9.29984 3.35947 10.2812 4.01479 11.0553C4.67012 11.8293 5.57872 12.3459 6.57904 12.5131C7.57937 12.6804 8.60658 12.4874 9.47805 11.9686C10.3495 11.4498 11.0087 10.6387 11.3385 9.67966C11.6683 8.72056 11.6473 7.67559 11.2792 6.73055C10.911 5.78551 10.2197 5.00164 9.32807 4.51832C8.43644 4.03499 7.40229 3.88355 6.4095 4.0909C5.41672 4.29825 4.52964 4.85097 3.906 5.65077" stroke="#535353" stroke-linecap="round" stroke-linejoin="round"/>
<path d="M3.85718 2.28564V5.71422H7.28575" stroke="#535353" stroke-linecap="round" stroke-linejoin="round"/>
<path d="M15 15.9999L10.3894 11.3893" stroke="#535353" stroke-linecap="round" stroke-linejoin="round"/>
</svg>
