<svg width="50" height="50" viewBox="0 0 50 50" fill="none" xmlns="http://www.w3.org/2000/svg">
<g clip-path="url(#clip0)">
<path d="M49.5605 29.6875C48.8118 25.8464 47.2819 22.3877 44.9707 19.3115C42.6595 16.2354 39.7542 13.8102 36.2548 12.0361C32.7555 10.262 29.0039 9.375 25 9.375C23.6979 9.375 22.5911 8.91927 21.6796 8.00781C20.7682 7.09635 20.3125 5.98958 20.3125 4.6875C20.3125 3.38542 20.7682 2.27865 21.6796 1.36719C22.5911 0.455729 23.6979 0 25 0C28.3854 0 31.6243 0.65918 34.7168 1.97754C37.8092 3.2959 40.4703 5.06999 42.7002 7.2998C44.93 9.52962 46.7041 12.1908 48.0224 15.2832C49.3408 18.3757 50 21.6146 50 25C50 26.5299 49.8535 28.0924 49.5605 29.6875ZM38.5253 32.8125C39.1764 31.7057 40.1285 30.9814 41.3818 30.6396C42.635 30.2979 43.8232 30.4525 44.9462 31.1035C46.0693 31.7546 46.7936 32.7067 47.1191 33.96C47.4446 35.2132 47.2819 36.3932 46.6308 37.5C44.9381 40.4297 42.749 42.9036 40.0634 44.9219C37.3779 46.9401 34.5133 48.3561 31.4697 49.1699C28.4261 49.9837 25.236 50.1872 21.8994 49.7803C18.5628 49.3734 15.4296 48.3236 12.5 46.6309C11.1653 45.8822 9.89579 44.9707 8.69137 43.8965C11.4257 44.9056 14.2496 45.3695 17.163 45.2881C20.0765 45.2067 22.8515 44.7021 25.4882 43.7744C28.125 42.8467 30.5826 41.4388 32.8613 39.5508C35.1399 37.6628 37.028 35.4167 38.5253 32.8125ZM11.4746 32.8125C12.1256 33.9193 12.2802 35.0993 11.9384 36.3525C11.5966 37.6058 10.8642 38.5579 9.74117 39.209C8.61812 39.86 7.43811 40.0146 6.20113 39.6729C4.96415 39.3311 4.02014 38.6068 3.3691 37.5C1.67639 34.5703 0.626587 31.4372 0.219686 28.1006C-0.187215 24.764 0.0162354 21.5739 0.830037 18.5303C1.64384 15.4867 3.05985 12.6221 5.07808 9.93652C7.09631 7.25098 9.57027 5.06185 12.5 3.36914C13.8346 2.58789 15.2669 1.93685 16.7968 1.41602C13.8346 3.95508 11.5966 6.9987 10.083 10.5469C8.56929 14.0951 7.92639 17.8304 8.15426 21.7529C8.38212 25.6755 9.48889 29.362 11.4746 32.8125Z" fill="#4FBFFF"/>
</g>
<defs>
<clipPath id="clip0">
<rect width="50" height="50" fill="white"/>
</clipPath>
</defs>
</svg>
